<svg xmlns="http://www.w3.org/2000/svg" viewBox="0 0 256 256" width="256" height="256">
<title>Michishirube icon: camellia</title>
<defs>

<linearGradient id="gA" x1="0.5" y1="1" x2="0.5" y2="0"><stop offset="0" stop-color="#6d0b25"/><stop offset="0.35" stop-color="#b3173f"/><stop offset="0.75" stop-color="#dc3d68"/><stop offset="1" stop-color="#f0708f"/></linearGradient>
<linearGradient id="gB" x1="0.5" y1="1" x2="0.5" y2="0"><stop offset="0" stop-color="#650a22"/><stop offset="0.4" stop-color="#ae1640"/><stop offset="0.8" stop-color="#d93a66"/><stop offset="1" stop-color="#ee6a8b"/></linearGradient>
<linearGradient id="gC" x1="0.5" y1="1" x2="0.5" y2="0"><stop offset="0" stop-color="#55071d"/><stop offset="0.4" stop-color="#a01238"/><stop offset="0.8" stop-color="#cf305c"/><stop offset="1" stop-color="#e8587d"/></linearGradient>
<linearGradient id="gD" x1="0.5" y1="1" x2="0.5" y2="0"><stop offset="0" stop-color="#46051a"/><stop offset="0.45" stop-color="#94102f"/><stop offset="0.85" stop-color="#c42853"/><stop offset="1" stop-color="#de4d73"/></linearGradient>
<linearGradient id="sheen" x1="0.25" y1="0" x2="0.6" y2="0.75"><stop offset="0" stop-color="#fff" stop-opacity="0.34"/><stop offset="0.5" stop-color="#fff" stop-opacity="0.07"/><stop offset="1" stop-color="#fff" stop-opacity="0"/></linearGradient>
<radialGradient id="ao60" cx="0.5" cy="0.5" r="0.5"><stop offset="0" stop-color="#2a0010" stop-opacity="0.75"/><stop offset="0.6" stop-color="#2a0010" stop-opacity="0.28"/><stop offset="1" stop-color="#2a0010" stop-opacity="0"/></radialGradient>
<radialGradient id="boss" cx="0.5" cy="0.5" r="0.5"><stop offset="0" stop-color="#2b1500"/><stop offset="0.7" stop-color="#6b4306"/><stop offset="1" stop-color="#b8860b"/></radialGradient>
<radialGradient id="anther" cx="0.35" cy="0.3" r="0.8"><stop offset="0" stop-color="#fff3a8"/><stop offset="0.6" stop-color="#f3bd22"/><stop offset="1" stop-color="#c78a05"/></radialGradient>
<linearGradient id="leafBase" x1="0" y1="0" x2="1" y2="0"><stop offset="0" stop-color="#0d3a1c"/><stop offset="0.45" stop-color="#2c7a37"/><stop offset="1" stop-color="#14451f"/></linearGradient>
<linearGradient id="leafLen" x1="0" y1="1" x2="0" y2="0"><stop offset="0" stop-color="#05200c" stop-opacity="0.55"/><stop offset="0.6" stop-color="#05200c" stop-opacity="0"/><stop offset="1" stop-color="#9fd27a" stop-opacity="0.25"/></linearGradient>
<linearGradient id="leafSheen" x1="0" y1="0" x2="1" y2="0.3"><stop offset="0" stop-color="#fff" stop-opacity="0"/><stop offset="0.3" stop-color="#e6ffd0" stop-opacity="0.28"/><stop offset="0.5" stop-color="#fff" stop-opacity="0"/></linearGradient>
<filter id="sh1" x="-20%" y="-20%" width="150%" height="150%"><feGaussianBlur in="SourceAlpha" stdDeviation="3.2"/><feOffset dx="2" dy="3.5" result="b"/><feColorMatrix in="b" type="matrix" values="0 0 0 0 0.16  0 0 0 0 0.0  0 0 0 0 0.05  0 0 0 0.6 0"/><feMerge><feMergeNode/><feMergeNode in="SourceGraphic"/></feMerge></filter>
<filter id="sh2" x="-20%" y="-20%" width="150%" height="150%"><feGaussianBlur in="SourceAlpha" stdDeviation="2.6"/><feOffset dx="1.6" dy="3" result="b"/><feColorMatrix in="b" type="matrix" values="0 0 0 0 0.16  0 0 0 0 0.0  0 0 0 0 0.05  0 0 0 0.62 0"/><feMerge><feMergeNode/><feMergeNode in="SourceGraphic"/></feMerge></filter>
<filter id="sh3" x="-20%" y="-20%" width="150%" height="150%"><feGaussianBlur in="SourceAlpha" stdDeviation="2"/><feOffset dx="1.2" dy="2.4" result="b"/><feColorMatrix in="b" type="matrix" values="0 0 0 0 0.16  0 0 0 0 0.0  0 0 0 0 0.05  0 0 0 0.65 0"/><feMerge><feMergeNode/><feMergeNode in="SourceGraphic"/></feMerge></filter>
<filter id="sh4" x="-20%" y="-20%" width="150%" height="150%"><feGaussianBlur in="SourceAlpha" stdDeviation="1.5"/><feOffset dx="1" dy="1.8" result="b"/><feColorMatrix in="b" type="matrix" values="0 0 0 0 0.16  0 0 0 0 0.0  0 0 0 0 0.05  0 0 0 0.7 0"/><feMerge><feMergeNode/><feMergeNode in="SourceGraphic"/></feMerge></filter>
<filter id="tinyShadow" x="-40%" y="-40%" width="180%" height="180%"><feGaussianBlur in="SourceAlpha" stdDeviation="1"/><feOffset dx="0.8" dy="1.4" result="b"/><feColorMatrix in="b" type="matrix" values="0 0 0 0 0.1  0 0 0 0 0.03  0 0 0 0 0  0 0 0 0.6 0"/><feMerge><feMergeNode/><feMergeNode in="SourceGraphic"/></feMerge></filter>
<filter id="leafShadow" x="-30%" y="-20%" width="160%" height="150%"><feGaussianBlur in="SourceAlpha" stdDeviation="3"/><feOffset dx="2" dy="4" result="b"/><feColorMatrix in="b" type="matrix" values="0 0 0 0 0  0 0 0 0 0.05  0 0 0 0 0  0 0 0 0.5 0"/><feMerge><feMergeNode/><feMergeNode in="SourceGraphic"/></feMerge></filter>
<filter id="blur6" x="-30%" y="-100%" width="160%" height="300%"><feGaussianBlur stdDeviation="6"/></filter>

</defs>
<ellipse cx="130" cy="230" rx="66" ry="6" fill="#1a0a10" fill-opacity="0.24" filter="url(#blur6)"/>
<g transform="translate(128 126) rotate(210)" filter="url(#leafShadow)"><path d="M0.0,-0.0 L-4.7,-0.9 L-7.4,-1.9 L-9.6,-2.8 L-11.5,-3.7 L-13.3,-4.6 L-13.4,-5.6 L-14.9,-6.5 L-16.4,-7.4 L-17.8,-8.4 L-19.1,-9.3 L-18.8,-10.2 L-20.0,-11.1 L-21.2,-12.1 L-22.3,-13.0 L-23.3,-13.9 L-24.4,-14.9 L-23.8,-15.8 L-24.8,-16.7 L-25.7,-17.6 L-26.6,-18.6 L-27.5,-19.5 L-26.8,-20.4 L-27.6,-21.4 L-28.4,-22.3 L-29.2,-23.2 L-29.9,-24.1 L-29.1,-25.1 L-29.8,-26.0 L-30.4,-26.9 L-31.1,-27.9 L-31.7,-28.8 L-32.3,-29.7 L-31.3,-30.6 L-31.9,-31.6 L-32.4,-32.5 L-32.9,-33.4 L-33.4,-34.4 L-32.4,-35.3 L-32.8,-36.2 L-33.3,-37.1 L-33.7,-38.1 L-34.1,-39.0 L-34.5,-39.9 L-33.3,-40.9 L-33.7,-41.8 L-34.0,-42.7 L-34.3,-43.6 L-34.6,-44.6 L-33.4,-45.5 L-33.7,-46.4 L-33.9,-47.4 L-34.2,-48.3 L-34.4,-49.2 L-33.1,-50.1 L-33.3,-51.1 L-33.5,-52.0 L-33.6,-52.9 L-33.8,-53.9 L-33.9,-54.8 L-32.6,-55.7 L-32.7,-56.6 L-32.8,-57.6 L-32.8,-58.5 L-32.9,-59.4 L-31.5,-60.4 L-31.5,-61.3 L-31.5,-62.2 L-31.6,-63.1 L-31.6,-64.1 L-30.1,-65.0 L-30.1,-65.9 L-30.0,-66.9 L-30.0,-67.8 L-29.9,-68.7 L-29.9,-69.6 L-28.3,-70.6 L-28.2,-71.5 L-28.1,-72.4 L-28.0,-73.4 L-27.9,-74.3 L-26.3,-75.2 L-26.2,-76.1 L-26.0,-77.1 L-25.9,-78.0 L-25.7,-78.9 L-25.5,-79.9 L-23.9,-80.8 L-23.7,-81.7 L-23.5,-82.6 L-23.3,-83.6 L-23.1,-84.5 L-21.3,-85.4 L-21.1,-86.4 L-20.8,-87.3 L-20.6,-88.2 L-20.3,-89.1 L-18.6,-90.1 L-18.3,-91.0 L-18.0,-91.9 L-17.7,-92.9 L-17.4,-93.8 L-17.1,-94.7 L-15.3,-95.6 L-15.0,-96.6 L-14.6,-97.5 L-14.3,-98.4 L-14.0,-99.4 L-12.1,-100.3 L-11.7,-101.2 L-11.4,-102.1 L-11.0,-103.1 L-10.6,-104.0 L-10.2,-104.9 L-8.3,-105.9 L-7.9,-106.8 L-7.5,-107.7 L-7.1,-108.6 L-6.7,-109.6 L-4.7,-110.5 L-4.3,-111.4 L-3.9,-112.4 L-3.4,-113.3 L-2.9,-114.2 L-1.0,-115.1 L-0.5,-116.1 L-0.0,-117.0 L0.5,-117.9 L1.0,-118.9 L1.5,-119.8 L3.5,-120.7 L4.1,-121.6 L4.6,-122.6 L5.2,-123.5 L5.8,-124.4 L7.9,-125.4 L8.6,-126.3 L9.4,-127.2 L10.4,-128.1 L11.5,-129.1 L13.0,-130.0 L13.0,-130.0 L14.1,-129.1 L14.8,-128.1 L15.4,-127.2 L15.9,-126.3 L16.3,-125.4 L17.9,-124.4 L18.2,-123.5 L18.4,-122.6 L18.7,-121.6 L18.9,-120.7 L20.4,-119.8 L20.6,-118.9 L20.8,-117.9 L21.0,-117.0 L21.2,-116.1 L21.4,-115.1 L22.9,-114.2 L23.1,-113.3 L23.2,-112.4 L23.4,-111.4 L23.5,-110.5 L25.0,-109.6 L25.2,-108.6 L25.3,-107.7 L25.4,-106.8 L25.5,-105.9 L27.0,-104.9 L27.1,-104.0 L27.3,-103.1 L27.4,-102.1 L27.5,-101.2 L27.6,-100.3 L29.0,-99.4 L29.1,-98.4 L29.2,-97.5 L29.3,-96.6 L29.3,-95.6 L30.8,-94.7 L30.8,-93.8 L30.9,-92.9 L31.0,-91.9 L31.0,-91.0 L31.0,-90.1 L32.4,-89.1 L32.5,-88.2 L32.5,-87.3 L32.5,-86.4 L32.5,-85.4 L33.9,-84.5 L33.9,-83.6 L33.9,-82.6 L33.9,-81.7 L33.9,-80.8 L35.2,-79.9 L35.2,-78.9 L35.2,-78.0 L35.1,-77.1 L35.1,-76.1 L35.0,-75.2 L36.3,-74.3 L36.2,-73.4 L36.1,-72.4 L36.1,-71.5 L36.0,-70.6 L37.2,-69.6 L37.1,-68.7 L37.0,-67.8 L36.9,-66.9 L36.7,-65.9 L36.6,-65.0 L37.8,-64.1 L37.6,-63.1 L37.4,-62.2 L37.3,-61.3 L37.1,-60.4 L38.2,-59.4 L38.0,-58.5 L37.8,-57.6 L37.5,-56.6 L37.3,-55.7 L38.4,-54.8 L38.1,-53.9 L37.9,-52.9 L37.6,-52.0 L37.3,-51.1 L37.0,-50.1 L38.0,-49.2 L37.7,-48.3 L37.3,-47.4 L37.0,-46.4 L36.6,-45.5 L37.6,-44.6 L37.2,-43.6 L36.8,-42.7 L36.3,-41.8 L35.9,-40.9 L36.8,-39.9 L36.3,-39.0 L35.8,-38.1 L35.3,-37.1 L34.8,-36.2 L34.3,-35.3 L35.1,-34.4 L34.5,-33.4 L34.0,-32.5 L33.4,-31.6 L32.8,-30.6 L33.5,-29.7 L32.8,-28.8 L32.2,-27.9 L31.5,-26.9 L30.8,-26.0 L30.1,-25.1 L30.7,-24.1 L29.9,-23.2 L29.1,-22.3 L28.3,-21.4 L27.4,-20.4 L27.9,-19.5 L27.0,-18.6 L26.1,-17.6 L25.2,-16.7 L24.2,-15.8 L24.5,-14.9 L23.5,-13.9 L22.4,-13.0 L21.3,-12.1 L20.2,-11.1 L19.0,-10.2 L19.1,-9.3 L17.8,-8.4 L16.4,-7.4 L15.0,-6.5 L13.4,-5.6 L13.2,-4.6 L11.4,-3.7 L9.5,-2.8 L7.4,-1.9 L4.7,-0.9 L0.0,-0.0 Z" fill="url(#leafBase)"/><path d="M0.0,-0.0 L-4.7,-0.9 L-7.4,-1.9 L-9.6,-2.8 L-11.5,-3.7 L-13.3,-4.6 L-13.4,-5.6 L-14.9,-6.5 L-16.4,-7.4 L-17.8,-8.4 L-19.1,-9.3 L-18.8,-10.2 L-20.0,-11.1 L-21.2,-12.1 L-22.3,-13.0 L-23.3,-13.9 L-24.4,-14.9 L-23.8,-15.8 L-24.8,-16.7 L-25.7,-17.6 L-26.6,-18.6 L-27.5,-19.5 L-26.8,-20.4 L-27.6,-21.4 L-28.4,-22.3 L-29.2,-23.2 L-29.9,-24.1 L-29.1,-25.1 L-29.8,-26.0 L-30.4,-26.9 L-31.1,-27.9 L-31.7,-28.8 L-32.3,-29.7 L-31.3,-30.6 L-31.9,-31.6 L-32.4,-32.5 L-32.9,-33.4 L-33.4,-34.4 L-32.4,-35.3 L-32.8,-36.2 L-33.3,-37.1 L-33.7,-38.1 L-34.1,-39.0 L-34.5,-39.9 L-33.3,-40.9 L-33.7,-41.8 L-34.0,-42.7 L-34.3,-43.6 L-34.6,-44.6 L-33.4,-45.5 L-33.7,-46.4 L-33.9,-47.4 L-34.2,-48.3 L-34.4,-49.2 L-33.1,-50.1 L-33.3,-51.1 L-33.5,-52.0 L-33.6,-52.9 L-33.8,-53.9 L-33.9,-54.8 L-32.6,-55.7 L-32.7,-56.6 L-32.8,-57.6 L-32.8,-58.5 L-32.9,-59.4 L-31.5,-60.4 L-31.5,-61.3 L-31.5,-62.2 L-31.6,-63.1 L-31.6,-64.1 L-30.1,-65.0 L-30.1,-65.9 L-30.0,-66.9 L-30.0,-67.8 L-29.9,-68.7 L-29.9,-69.6 L-28.3,-70.6 L-28.2,-71.5 L-28.1,-72.4 L-28.0,-73.4 L-27.9,-74.3 L-26.3,-75.2 L-26.2,-76.1 L-26.0,-77.1 L-25.9,-78.0 L-25.7,-78.9 L-25.5,-79.9 L-23.9,-80.8 L-23.7,-81.7 L-23.5,-82.6 L-23.3,-83.6 L-23.1,-84.5 L-21.3,-85.4 L-21.1,-86.4 L-20.8,-87.3 L-20.6,-88.2 L-20.3,-89.1 L-18.6,-90.1 L-18.3,-91.0 L-18.0,-91.9 L-17.7,-92.9 L-17.4,-93.8 L-17.1,-94.7 L-15.3,-95.6 L-15.0,-96.6 L-14.6,-97.5 L-14.3,-98.4 L-14.0,-99.4 L-12.1,-100.3 L-11.7,-101.2 L-11.4,-102.1 L-11.0,-103.1 L-10.6,-104.0 L-10.2,-104.9 L-8.3,-105.9 L-7.9,-106.8 L-7.5,-107.7 L-7.1,-108.6 L-6.7,-109.6 L-4.7,-110.5 L-4.3,-111.4 L-3.9,-112.4 L-3.4,-113.3 L-2.9,-114.2 L-1.0,-115.1 L-0.5,-116.1 L-0.0,-117.0 L0.5,-117.9 L1.0,-118.9 L1.5,-119.8 L3.5,-120.7 L4.1,-121.6 L4.6,-122.6 L5.2,-123.5 L5.8,-124.4 L7.9,-125.4 L8.6,-126.3 L9.4,-127.2 L10.4,-128.1 L11.5,-129.1 L13.0,-130.0 L13.0,-130.0 L14.1,-129.1 L14.8,-128.1 L15.4,-127.2 L15.9,-126.3 L16.3,-125.4 L17.9,-124.4 L18.2,-123.5 L18.4,-122.6 L18.7,-121.6 L18.9,-120.7 L20.4,-119.8 L20.6,-118.9 L20.8,-117.9 L21.0,-117.0 L21.2,-116.1 L21.4,-115.1 L22.9,-114.2 L23.1,-113.3 L23.2,-112.4 L23.4,-111.4 L23.5,-110.5 L25.0,-109.6 L25.2,-108.6 L25.3,-107.7 L25.4,-106.8 L25.5,-105.9 L27.0,-104.9 L27.1,-104.0 L27.3,-103.1 L27.4,-102.1 L27.5,-101.2 L27.6,-100.3 L29.0,-99.4 L29.1,-98.4 L29.2,-97.5 L29.3,-96.6 L29.3,-95.6 L30.8,-94.7 L30.8,-93.8 L30.9,-92.9 L31.0,-91.9 L31.0,-91.0 L31.0,-90.1 L32.4,-89.1 L32.5,-88.2 L32.5,-87.3 L32.5,-86.4 L32.5,-85.4 L33.9,-84.5 L33.9,-83.6 L33.9,-82.6 L33.9,-81.7 L33.9,-80.8 L35.2,-79.9 L35.2,-78.9 L35.2,-78.0 L35.1,-77.1 L35.1,-76.1 L35.0,-75.2 L36.3,-74.3 L36.2,-73.4 L36.1,-72.4 L36.1,-71.5 L36.0,-70.6 L37.2,-69.6 L37.1,-68.7 L37.0,-67.8 L36.9,-66.9 L36.7,-65.9 L36.6,-65.0 L37.8,-64.1 L37.6,-63.1 L37.4,-62.2 L37.3,-61.3 L37.1,-60.4 L38.2,-59.4 L38.0,-58.5 L37.8,-57.6 L37.5,-56.6 L37.3,-55.7 L38.4,-54.8 L38.1,-53.9 L37.9,-52.9 L37.6,-52.0 L37.3,-51.1 L37.0,-50.1 L38.0,-49.2 L37.7,-48.3 L37.3,-47.4 L37.0,-46.4 L36.6,-45.5 L37.6,-44.6 L37.2,-43.6 L36.8,-42.7 L36.3,-41.8 L35.9,-40.9 L36.8,-39.9 L36.3,-39.0 L35.8,-38.1 L35.3,-37.1 L34.8,-36.2 L34.3,-35.3 L35.1,-34.4 L34.5,-33.4 L34.0,-32.5 L33.4,-31.6 L32.8,-30.6 L33.5,-29.7 L32.8,-28.8 L32.2,-27.9 L31.5,-26.9 L30.8,-26.0 L30.1,-25.1 L30.7,-24.1 L29.9,-23.2 L29.1,-22.3 L28.3,-21.4 L27.4,-20.4 L27.9,-19.5 L27.0,-18.6 L26.1,-17.6 L25.2,-16.7 L24.2,-15.8 L24.5,-14.9 L23.5,-13.9 L22.4,-13.0 L21.3,-12.1 L20.2,-11.1 L19.0,-10.2 L19.1,-9.3 L17.8,-8.4 L16.4,-7.4 L15.0,-6.5 L13.4,-5.6 L13.2,-4.6 L11.4,-3.7 L9.5,-2.8 L7.4,-1.9 L4.7,-0.9 L0.0,-0.0 Z" fill="url(#leafLen)"/><path d="M0.1,-12.4 Q-9.2,-15.4 -20.3,-23.4" fill="none" stroke="#06220f" stroke-opacity="0.4" stroke-width="0.8"/><path d="M0.1,-12.4 Q9.4,-15.4 21.1,-23.4" fill="none" stroke="#06220f" stroke-opacity="0.4" stroke-width="0.8"/><path d="M0.5,-24.8 Q-10.3,-27.8 -23.1,-35.8" fill="none" stroke="#06220f" stroke-opacity="0.4" stroke-width="0.8"/><path d="M0.5,-24.8 Q11.3,-27.8 25.0,-35.8" fill="none" stroke="#06220f" stroke-opacity="0.4" stroke-width="0.8"/><path d="M1.1,-37.1 Q-10.3,-40.1 -23.4,-48.2" fill="none" stroke="#06220f" stroke-opacity="0.4" stroke-width="0.8"/><path d="M1.1,-37.1 Q12.4,-40.1 27.0,-48.2" fill="none" stroke="#06220f" stroke-opacity="0.4" stroke-width="0.8"/><path d="M1.9,-49.5 Q-9.2,-52.5 -21.8,-60.6" fill="none" stroke="#06220f" stroke-opacity="0.4" stroke-width="0.8"/><path d="M1.9,-49.5 Q12.9,-52.5 27.4,-60.6" fill="none" stroke="#06220f" stroke-opacity="0.4" stroke-width="0.8"/><path d="M2.9,-61.9 Q-7.2,-64.9 -18.4,-73.0" fill="none" stroke="#06220f" stroke-opacity="0.4" stroke-width="0.8"/><path d="M2.9,-61.9 Q13.1,-64.9 26.6,-73.0" fill="none" stroke="#06220f" stroke-opacity="0.4" stroke-width="0.8"/><path d="M4.2,-74.3 Q-4.5,-77.3 -13.7,-85.3" fill="none" stroke="#06220f" stroke-opacity="0.4" stroke-width="0.8"/><path d="M4.2,-74.3 Q12.9,-77.3 24.9,-85.3" fill="none" stroke="#06220f" stroke-opacity="0.4" stroke-width="0.8"/><path d="M5.8,-86.7 Q-1.1,-89.7 -7.8,-97.7" fill="none" stroke="#06220f" stroke-opacity="0.4" stroke-width="0.8"/><path d="M5.8,-86.7 Q12.6,-89.7 22.5,-97.7" fill="none" stroke="#06220f" stroke-opacity="0.4" stroke-width="0.8"/><path d="M7.5,-99.0 Q2.9,-102.0 -0.9,-110.1" fill="none" stroke="#06220f" stroke-opacity="0.4" stroke-width="0.8"/><path d="M7.5,-99.0 Q12.2,-102.0 19.6,-110.1" fill="none" stroke="#06220f" stroke-opacity="0.4" stroke-width="0.8"/><path d="M0.0,-0.0 L0.0,-6.4 L0.1,-12.7 L0.3,-19.1 L0.5,-25.5 L0.8,-31.8 L1.2,-38.2 L1.6,-44.6 L2.1,-51.0 L2.6,-57.3 L3.2,-63.7 L3.9,-70.1 L4.7,-76.4 L5.5,-82.8 L6.4,-89.2 L7.3,-95.5 L8.3,-101.9 L9.4,-108.3 L10.5,-114.7 L11.7,-121.0 L13.0,-127.4" fill="none" stroke="#a7d47a" stroke-opacity="0.75" stroke-width="1.5" stroke-linecap="round"/><path d="M0.0,-0.0 L-4.7,-0.9 L-7.4,-1.9 L-9.6,-2.8 L-11.5,-3.7 L-13.3,-4.6 L-13.4,-5.6 L-14.9,-6.5 L-16.4,-7.4 L-17.8,-8.4 L-19.1,-9.3 L-18.8,-10.2 L-20.0,-11.1 L-21.2,-12.1 L-22.3,-13.0 L-23.3,-13.9 L-24.4,-14.9 L-23.8,-15.8 L-24.8,-16.7 L-25.7,-17.6 L-26.6,-18.6 L-27.5,-19.5 L-26.8,-20.4 L-27.6,-21.4 L-28.4,-22.3 L-29.2,-23.2 L-29.9,-24.1 L-29.1,-25.1 L-29.8,-26.0 L-30.4,-26.9 L-31.1,-27.9 L-31.7,-28.8 L-32.3,-29.7 L-31.3,-30.6 L-31.9,-31.6 L-32.4,-32.5 L-32.9,-33.4 L-33.4,-34.4 L-32.4,-35.3 L-32.8,-36.2 L-33.3,-37.1 L-33.7,-38.1 L-34.1,-39.0 L-34.5,-39.9 L-33.3,-40.9 L-33.7,-41.8 L-34.0,-42.7 L-34.3,-43.6 L-34.6,-44.6 L-33.4,-45.5 L-33.7,-46.4 L-33.9,-47.4 L-34.2,-48.3 L-34.4,-49.2 L-33.1,-50.1 L-33.3,-51.1 L-33.5,-52.0 L-33.6,-52.9 L-33.8,-53.9 L-33.9,-54.8 L-32.6,-55.7 L-32.7,-56.6 L-32.8,-57.6 L-32.8,-58.5 L-32.9,-59.4 L-31.5,-60.4 L-31.5,-61.3 L-31.5,-62.2 L-31.6,-63.1 L-31.6,-64.1 L-30.1,-65.0 L-30.1,-65.9 L-30.0,-66.9 L-30.0,-67.8 L-29.9,-68.7 L-29.9,-69.6 L-28.3,-70.6 L-28.2,-71.5 L-28.1,-72.4 L-28.0,-73.4 L-27.9,-74.3 L-26.3,-75.2 L-26.2,-76.1 L-26.0,-77.1 L-25.9,-78.0 L-25.7,-78.9 L-25.5,-79.9 L-23.9,-80.8 L-23.7,-81.7 L-23.5,-82.6 L-23.3,-83.6 L-23.1,-84.5 L-21.3,-85.4 L-21.1,-86.4 L-20.8,-87.3 L-20.6,-88.2 L-20.3,-89.1 L-18.6,-90.1 L-18.3,-91.0 L-18.0,-91.9 L-17.7,-92.9 L-17.4,-93.8 L-17.1,-94.7 L-15.3,-95.6 L-15.0,-96.6 L-14.6,-97.5 L-14.3,-98.4 L-14.0,-99.4 L-12.1,-100.3 L-11.7,-101.2 L-11.4,-102.1 L-11.0,-103.1 L-10.6,-104.0 L-10.2,-104.9 L-8.3,-105.9 L-7.9,-106.8 L-7.5,-107.7 L-7.1,-108.6 L-6.7,-109.6 L-4.7,-110.5 L-4.3,-111.4 L-3.9,-112.4 L-3.4,-113.3 L-2.9,-114.2 L-1.0,-115.1 L-0.5,-116.1 L-0.0,-117.0 L0.5,-117.9 L1.0,-118.9 L1.5,-119.8 L3.5,-120.7 L4.1,-121.6 L4.6,-122.6 L5.2,-123.5 L5.8,-124.4 L7.9,-125.4 L8.6,-126.3 L9.4,-127.2 L10.4,-128.1 L11.5,-129.1 L13.0,-130.0 L13.0,-130.0 L14.1,-129.1 L14.8,-128.1 L15.4,-127.2 L15.9,-126.3 L16.3,-125.4 L17.9,-124.4 L18.2,-123.5 L18.4,-122.6 L18.7,-121.6 L18.9,-120.7 L20.4,-119.8 L20.6,-118.9 L20.8,-117.9 L21.0,-117.0 L21.2,-116.1 L21.4,-115.1 L22.9,-114.2 L23.1,-113.3 L23.2,-112.4 L23.4,-111.4 L23.5,-110.5 L25.0,-109.6 L25.2,-108.6 L25.3,-107.7 L25.4,-106.8 L25.5,-105.9 L27.0,-104.9 L27.1,-104.0 L27.3,-103.1 L27.4,-102.1 L27.5,-101.2 L27.6,-100.3 L29.0,-99.4 L29.1,-98.4 L29.2,-97.5 L29.3,-96.6 L29.3,-95.6 L30.8,-94.7 L30.8,-93.8 L30.9,-92.9 L31.0,-91.9 L31.0,-91.0 L31.0,-90.1 L32.4,-89.1 L32.5,-88.2 L32.5,-87.3 L32.5,-86.4 L32.5,-85.4 L33.9,-84.5 L33.9,-83.6 L33.9,-82.6 L33.9,-81.7 L33.9,-80.8 L35.2,-79.9 L35.2,-78.9 L35.2,-78.0 L35.1,-77.1 L35.1,-76.1 L35.0,-75.2 L36.3,-74.3 L36.2,-73.4 L36.1,-72.4 L36.1,-71.5 L36.0,-70.6 L37.2,-69.6 L37.1,-68.7 L37.0,-67.8 L36.9,-66.9 L36.7,-65.9 L36.6,-65.0 L37.8,-64.1 L37.6,-63.1 L37.4,-62.2 L37.3,-61.3 L37.1,-60.4 L38.2,-59.4 L38.0,-58.5 L37.8,-57.6 L37.5,-56.6 L37.3,-55.7 L38.4,-54.8 L38.1,-53.9 L37.9,-52.9 L37.6,-52.0 L37.3,-51.1 L37.0,-50.1 L38.0,-49.2 L37.7,-48.3 L37.3,-47.4 L37.0,-46.4 L36.6,-45.5 L37.6,-44.6 L37.2,-43.6 L36.8,-42.7 L36.3,-41.8 L35.9,-40.9 L36.8,-39.9 L36.3,-39.0 L35.8,-38.1 L35.3,-37.1 L34.8,-36.2 L34.3,-35.3 L35.1,-34.4 L34.5,-33.4 L34.0,-32.5 L33.4,-31.6 L32.8,-30.6 L33.5,-29.7 L32.8,-28.8 L32.2,-27.9 L31.5,-26.9 L30.8,-26.0 L30.1,-25.1 L30.7,-24.1 L29.9,-23.2 L29.1,-22.3 L28.3,-21.4 L27.4,-20.4 L27.9,-19.5 L27.0,-18.6 L26.1,-17.6 L25.2,-16.7 L24.2,-15.8 L24.5,-14.9 L23.5,-13.9 L22.4,-13.0 L21.3,-12.1 L20.2,-11.1 L19.0,-10.2 L19.1,-9.3 L17.8,-8.4 L16.4,-7.4 L15.0,-6.5 L13.4,-5.6 L13.2,-4.6 L11.4,-3.7 L9.5,-2.8 L7.4,-1.9 L4.7,-0.9 L0.0,-0.0 Z" fill="url(#leafSheen)"/><path d="M0.0,-0.0 L-4.7,-0.9 L-7.4,-1.9 L-9.6,-2.8 L-11.5,-3.7 L-13.3,-4.6 L-13.4,-5.6 L-14.9,-6.5 L-16.4,-7.4 L-17.8,-8.4 L-19.1,-9.3 L-18.8,-10.2 L-20.0,-11.1 L-21.2,-12.1 L-22.3,-13.0 L-23.3,-13.9 L-24.4,-14.9 L-23.8,-15.8 L-24.8,-16.7 L-25.7,-17.6 L-26.6,-18.6 L-27.5,-19.5 L-26.8,-20.4 L-27.6,-21.4 L-28.4,-22.3 L-29.2,-23.2 L-29.9,-24.1 L-29.1,-25.1 L-29.8,-26.0 L-30.4,-26.9 L-31.1,-27.9 L-31.7,-28.8 L-32.3,-29.7 L-31.3,-30.6 L-31.9,-31.6 L-32.4,-32.5 L-32.9,-33.4 L-33.4,-34.4 L-32.4,-35.3 L-32.8,-36.2 L-33.3,-37.1 L-33.7,-38.1 L-34.1,-39.0 L-34.5,-39.9 L-33.3,-40.9 L-33.7,-41.8 L-34.0,-42.7 L-34.3,-43.6 L-34.6,-44.6 L-33.4,-45.5 L-33.7,-46.4 L-33.9,-47.4 L-34.2,-48.3 L-34.4,-49.2 L-33.1,-50.1 L-33.3,-51.1 L-33.5,-52.0 L-33.6,-52.9 L-33.8,-53.9 L-33.9,-54.8 L-32.6,-55.7 L-32.7,-56.6 L-32.8,-57.6 L-32.8,-58.5 L-32.9,-59.4 L-31.5,-60.4 L-31.5,-61.3 L-31.5,-62.2 L-31.6,-63.1 L-31.6,-64.1 L-30.1,-65.0 L-30.1,-65.9 L-30.0,-66.9 L-30.0,-67.8 L-29.9,-68.7 L-29.9,-69.6 L-28.3,-70.6 L-28.2,-71.5 L-28.1,-72.4 L-28.0,-73.4 L-27.9,-74.3 L-26.3,-75.2 L-26.2,-76.1 L-26.0,-77.1 L-25.9,-78.0 L-25.7,-78.9 L-25.5,-79.9 L-23.9,-80.8 L-23.7,-81.7 L-23.5,-82.6 L-23.3,-83.6 L-23.1,-84.5 L-21.3,-85.4 L-21.1,-86.4 L-20.8,-87.3 L-20.6,-88.2 L-20.3,-89.1 L-18.6,-90.1 L-18.3,-91.0 L-18.0,-91.9 L-17.7,-92.9 L-17.4,-93.8 L-17.1,-94.7 L-15.3,-95.6 L-15.0,-96.6 L-14.6,-97.5 L-14.3,-98.4 L-14.0,-99.4 L-12.1,-100.3 L-11.7,-101.2 L-11.4,-102.1 L-11.0,-103.1 L-10.6,-104.0 L-10.2,-104.9 L-8.3,-105.9 L-7.9,-106.8 L-7.5,-107.7 L-7.1,-108.6 L-6.7,-109.6 L-4.7,-110.5 L-4.3,-111.4 L-3.9,-112.4 L-3.4,-113.3 L-2.9,-114.2 L-1.0,-115.1 L-0.5,-116.1 L-0.0,-117.0 L0.5,-117.9 L1.0,-118.9 L1.5,-119.8 L3.5,-120.7 L4.1,-121.6 L4.6,-122.6 L5.2,-123.5 L5.8,-124.4 L7.9,-125.4 L8.6,-126.3 L9.4,-127.2 L10.4,-128.1 L11.5,-129.1 L13.0,-130.0 L13.0,-130.0 L14.1,-129.1 L14.8,-128.1 L15.4,-127.2 L15.9,-126.3 L16.3,-125.4 L17.9,-124.4 L18.2,-123.5 L18.4,-122.6 L18.7,-121.6 L18.9,-120.7 L20.4,-119.8 L20.6,-118.9 L20.8,-117.9 L21.0,-117.0 L21.2,-116.1 L21.4,-115.1 L22.9,-114.2 L23.1,-113.3 L23.2,-112.4 L23.4,-111.4 L23.5,-110.5 L25.0,-109.6 L25.2,-108.6 L25.3,-107.7 L25.4,-106.8 L25.5,-105.9 L27.0,-104.9 L27.1,-104.0 L27.3,-103.1 L27.4,-102.1 L27.5,-101.2 L27.6,-100.3 L29.0,-99.4 L29.1,-98.4 L29.2,-97.5 L29.3,-96.6 L29.3,-95.6 L30.8,-94.7 L30.8,-93.8 L30.9,-92.9 L31.0,-91.9 L31.0,-91.0 L31.0,-90.1 L32.4,-89.1 L32.5,-88.2 L32.5,-87.3 L32.5,-86.4 L32.5,-85.4 L33.9,-84.5 L33.9,-83.6 L33.9,-82.6 L33.9,-81.7 L33.9,-80.8 L35.2,-79.9 L35.2,-78.9 L35.2,-78.0 L35.1,-77.1 L35.1,-76.1 L35.0,-75.2 L36.3,-74.3 L36.2,-73.4 L36.1,-72.4 L36.1,-71.5 L36.0,-70.6 L37.2,-69.6 L37.1,-68.7 L37.0,-67.8 L36.9,-66.9 L36.7,-65.9 L36.6,-65.0 L37.8,-64.1 L37.6,-63.1 L37.4,-62.2 L37.3,-61.3 L37.1,-60.4 L38.2,-59.4 L38.0,-58.5 L37.8,-57.6 L37.5,-56.6 L37.3,-55.7 L38.4,-54.8 L38.1,-53.9 L37.9,-52.9 L37.6,-52.0 L37.3,-51.1 L37.0,-50.1 L38.0,-49.2 L37.7,-48.3 L37.3,-47.4 L37.0,-46.4 L36.6,-45.5 L37.6,-44.6 L37.2,-43.6 L36.8,-42.7 L36.3,-41.8 L35.9,-40.9 L36.8,-39.9 L36.3,-39.0 L35.8,-38.1 L35.3,-37.1 L34.8,-36.2 L34.3,-35.3 L35.1,-34.4 L34.5,-33.4 L34.0,-32.5 L33.4,-31.6 L32.8,-30.6 L33.5,-29.7 L32.8,-28.8 L32.2,-27.9 L31.5,-26.9 L30.8,-26.0 L30.1,-25.1 L30.7,-24.1 L29.9,-23.2 L29.1,-22.3 L28.3,-21.4 L27.4,-20.4 L27.9,-19.5 L27.0,-18.6 L26.1,-17.6 L25.2,-16.7 L24.2,-15.8 L24.5,-14.9 L23.5,-13.9 L22.4,-13.0 L21.3,-12.1 L20.2,-11.1 L19.0,-10.2 L19.1,-9.3 L17.8,-8.4 L16.4,-7.4 L15.0,-6.5 L13.4,-5.6 L13.2,-4.6 L11.4,-3.7 L9.5,-2.8 L7.4,-1.9 L4.7,-0.9 L0.0,-0.0 Z" fill="none" stroke="#0a2c14" stroke-opacity="0.6" stroke-width="0.8"/></g>
<g transform="translate(128 126) rotate(146)" filter="url(#leafShadow)"><path d="M-0.0,-0.0 L-4.6,-0.9 L-7.2,-1.8 L-9.4,-2.7 L-11.3,-3.6 L-13.0,-4.5 L-13.1,-5.4 L-14.6,-6.3 L-16.0,-7.2 L-17.4,-8.1 L-18.7,-9.0 L-18.4,-9.9 L-19.6,-10.8 L-20.8,-11.7 L-21.9,-12.6 L-23.0,-13.5 L-24.0,-14.4 L-23.5,-15.3 L-24.5,-16.2 L-25.5,-17.1 L-26.4,-18.0 L-27.3,-18.9 L-26.7,-19.8 L-27.5,-20.7 L-28.4,-21.6 L-29.2,-22.5 L-29.9,-23.4 L-29.2,-24.3 L-29.9,-25.2 L-30.7,-26.1 L-31.4,-27.0 L-32.0,-27.9 L-32.7,-28.8 L-31.9,-29.7 L-32.5,-30.6 L-33.1,-31.5 L-33.7,-32.4 L-34.3,-33.3 L-33.3,-34.2 L-33.9,-35.1 L-34.4,-36.0 L-34.9,-36.9 L-35.4,-37.8 L-35.9,-38.7 L-34.9,-39.6 L-35.4,-40.5 L-35.8,-41.4 L-36.2,-42.3 L-36.7,-43.2 L-35.6,-44.1 L-36.0,-45.0 L-36.3,-45.9 L-36.7,-46.8 L-37.1,-47.7 L-35.9,-48.6 L-36.3,-49.5 L-36.6,-50.4 L-36.9,-51.3 L-37.2,-52.2 L-37.5,-53.1 L-36.3,-54.0 L-36.5,-54.9 L-36.8,-55.8 L-37.0,-56.7 L-37.3,-57.6 L-36.0,-58.5 L-36.2,-59.4 L-36.4,-60.3 L-36.6,-61.2 L-36.8,-62.1 L-35.5,-63.0 L-35.7,-63.9 L-35.9,-64.8 L-36.0,-65.7 L-36.2,-66.6 L-36.3,-67.5 L-34.9,-68.4 L-35.1,-69.3 L-35.2,-70.2 L-35.3,-71.1 L-35.4,-72.0 L-34.0,-72.9 L-34.1,-73.8 L-34.2,-74.7 L-34.2,-75.6 L-34.3,-76.5 L-34.4,-77.4 L-32.9,-78.3 L-33.0,-79.2 L-33.0,-80.1 L-33.1,-81.0 L-33.1,-81.9 L-31.6,-82.8 L-31.6,-83.7 L-31.6,-84.6 L-31.7,-85.5 L-31.7,-86.4 L-30.2,-87.3 L-30.1,-88.2 L-30.1,-89.1 L-30.1,-90.0 L-30.1,-90.9 L-30.1,-91.8 L-28.5,-92.7 L-28.5,-93.6 L-28.4,-94.5 L-28.4,-95.4 L-28.3,-96.3 L-26.8,-97.2 L-26.7,-98.1 L-26.6,-99.0 L-26.6,-99.9 L-26.5,-100.8 L-26.4,-101.7 L-24.8,-102.6 L-24.7,-103.5 L-24.7,-104.4 L-24.6,-105.3 L-24.5,-106.2 L-22.8,-107.1 L-22.7,-108.0 L-22.6,-108.9 L-22.5,-109.8 L-22.4,-110.7 L-20.7,-111.6 L-20.6,-112.5 L-20.5,-113.4 L-20.3,-114.3 L-20.2,-115.2 L-20.0,-116.1 L-18.3,-117.0 L-18.2,-117.9 L-18.0,-118.8 L-17.8,-119.7 L-17.5,-120.6 L-15.8,-121.5 L-15.5,-122.4 L-15.0,-123.3 L-14.4,-124.2 L-13.7,-125.1 L-12.6,-126.0 L-12.6,-126.0 L-11.2,-125.1 L-10.1,-124.2 L-9.2,-123.3 L-8.3,-122.4 L-7.6,-121.5 L-5.7,-120.6 L-5.1,-119.7 L-4.5,-118.8 L-4.0,-117.9 L-3.4,-117.0 L-1.5,-116.1 L-1.0,-115.2 L-0.5,-114.3 L-0.0,-113.4 L0.5,-112.5 L1.0,-111.6 L2.8,-110.7 L3.3,-109.8 L3.7,-108.9 L4.2,-108.0 L4.6,-107.1 L6.4,-106.2 L6.8,-105.3 L7.3,-104.4 L7.7,-103.5 L8.1,-102.6 L9.9,-101.7 L10.2,-100.8 L10.6,-99.9 L11.0,-99.0 L11.4,-98.1 L11.8,-97.2 L13.5,-96.3 L13.8,-95.4 L14.2,-94.5 L14.5,-93.6 L14.9,-92.7 L16.5,-91.8 L16.9,-90.9 L17.2,-90.0 L17.5,-89.1 L17.8,-88.2 L18.1,-87.3 L19.7,-86.4 L20.0,-85.5 L20.2,-84.6 L20.5,-83.7 L20.7,-82.8 L22.3,-81.9 L22.5,-81.0 L22.8,-80.1 L23.0,-79.2 L23.2,-78.3 L24.7,-77.4 L24.9,-76.5 L25.1,-75.6 L25.3,-74.7 L25.4,-73.8 L25.6,-72.9 L27.1,-72.0 L27.2,-71.1 L27.3,-70.2 L27.4,-69.3 L27.5,-68.4 L28.9,-67.5 L29.0,-66.6 L29.1,-65.7 L29.1,-64.8 L29.2,-63.9 L29.2,-63.0 L30.6,-62.1 L30.6,-61.2 L30.6,-60.3 L30.6,-59.4 L30.6,-58.5 L31.9,-57.6 L31.8,-56.7 L31.8,-55.8 L31.7,-54.9 L31.6,-54.0 L32.9,-53.1 L32.7,-52.2 L32.6,-51.3 L32.5,-50.4 L32.3,-49.5 L32.2,-48.6 L33.3,-47.7 L33.1,-46.8 L32.9,-45.9 L32.7,-45.0 L32.5,-44.1 L33.6,-43.2 L33.3,-42.3 L33.0,-41.4 L32.7,-40.5 L32.4,-39.6 L33.4,-38.7 L33.0,-37.8 L32.7,-36.9 L32.3,-36.0 L31.9,-35.1 L31.5,-34.2 L32.4,-33.3 L31.9,-32.4 L31.4,-31.5 L30.9,-30.6 L30.4,-29.7 L31.2,-28.8 L30.7,-27.9 L30.1,-27.0 L29.5,-26.1 L28.9,-25.2 L28.3,-24.3 L28.9,-23.4 L28.3,-22.5 L27.5,-21.6 L26.8,-20.7 L26.0,-19.8 L26.6,-18.9 L25.8,-18.0 L24.9,-17.1 L24.1,-16.2 L23.1,-15.3 L23.6,-14.4 L22.6,-13.5 L21.6,-12.6 L20.5,-11.7 L19.4,-10.8 L18.3,-9.9 L18.4,-9.0 L17.2,-8.1 L15.9,-7.2 L14.5,-6.3 L13.0,-5.4 L12.8,-4.5 L11.1,-3.6 L9.3,-2.7 L7.2,-1.8 L4.6,-0.9 L0.0,-0.0 Z" fill="url(#leafBase)"/><path d="M-0.0,-0.0 L-4.6,-0.9 L-7.2,-1.8 L-9.4,-2.7 L-11.3,-3.6 L-13.0,-4.5 L-13.1,-5.4 L-14.6,-6.3 L-16.0,-7.2 L-17.4,-8.1 L-18.7,-9.0 L-18.4,-9.9 L-19.6,-10.8 L-20.8,-11.7 L-21.9,-12.6 L-23.0,-13.5 L-24.0,-14.4 L-23.5,-15.3 L-24.5,-16.2 L-25.5,-17.1 L-26.4,-18.0 L-27.3,-18.9 L-26.7,-19.8 L-27.5,-20.7 L-28.4,-21.6 L-29.2,-22.5 L-29.9,-23.4 L-29.2,-24.3 L-29.9,-25.2 L-30.7,-26.1 L-31.4,-27.0 L-32.0,-27.9 L-32.7,-28.8 L-31.9,-29.7 L-32.5,-30.6 L-33.1,-31.5 L-33.7,-32.4 L-34.3,-33.3 L-33.3,-34.2 L-33.9,-35.1 L-34.4,-36.0 L-34.9,-36.9 L-35.4,-37.8 L-35.9,-38.7 L-34.9,-39.6 L-35.4,-40.5 L-35.8,-41.4 L-36.2,-42.3 L-36.7,-43.2 L-35.6,-44.1 L-36.0,-45.0 L-36.3,-45.9 L-36.7,-46.8 L-37.1,-47.7 L-35.9,-48.6 L-36.3,-49.5 L-36.6,-50.4 L-36.9,-51.3 L-37.2,-52.2 L-37.5,-53.1 L-36.3,-54.0 L-36.5,-54.9 L-36.8,-55.8 L-37.0,-56.7 L-37.3,-57.6 L-36.0,-58.5 L-36.2,-59.4 L-36.4,-60.3 L-36.6,-61.2 L-36.8,-62.1 L-35.5,-63.0 L-35.7,-63.9 L-35.9,-64.8 L-36.0,-65.7 L-36.2,-66.6 L-36.3,-67.5 L-34.9,-68.4 L-35.1,-69.3 L-35.2,-70.2 L-35.3,-71.1 L-35.4,-72.0 L-34.0,-72.9 L-34.1,-73.8 L-34.2,-74.7 L-34.2,-75.6 L-34.3,-76.5 L-34.4,-77.4 L-32.9,-78.3 L-33.0,-79.2 L-33.0,-80.1 L-33.1,-81.0 L-33.1,-81.9 L-31.6,-82.8 L-31.6,-83.7 L-31.6,-84.6 L-31.7,-85.5 L-31.7,-86.4 L-30.2,-87.3 L-30.1,-88.2 L-30.1,-89.1 L-30.1,-90.0 L-30.1,-90.9 L-30.1,-91.8 L-28.5,-92.7 L-28.5,-93.6 L-28.4,-94.5 L-28.4,-95.4 L-28.3,-96.3 L-26.8,-97.2 L-26.7,-98.1 L-26.6,-99.0 L-26.6,-99.9 L-26.5,-100.8 L-26.4,-101.7 L-24.8,-102.6 L-24.7,-103.5 L-24.7,-104.4 L-24.6,-105.3 L-24.5,-106.2 L-22.8,-107.1 L-22.7,-108.0 L-22.6,-108.9 L-22.5,-109.8 L-22.4,-110.7 L-20.7,-111.6 L-20.6,-112.5 L-20.5,-113.4 L-20.3,-114.3 L-20.2,-115.2 L-20.0,-116.1 L-18.3,-117.0 L-18.2,-117.9 L-18.0,-118.8 L-17.8,-119.7 L-17.5,-120.6 L-15.8,-121.5 L-15.5,-122.4 L-15.0,-123.3 L-14.4,-124.2 L-13.7,-125.1 L-12.6,-126.0 L-12.6,-126.0 L-11.2,-125.1 L-10.1,-124.2 L-9.2,-123.3 L-8.3,-122.4 L-7.6,-121.5 L-5.7,-120.6 L-5.1,-119.7 L-4.5,-118.8 L-4.0,-117.9 L-3.4,-117.0 L-1.5,-116.1 L-1.0,-115.2 L-0.5,-114.3 L-0.0,-113.4 L0.5,-112.5 L1.0,-111.6 L2.8,-110.7 L3.3,-109.8 L3.7,-108.9 L4.2,-108.0 L4.6,-107.1 L6.4,-106.2 L6.8,-105.3 L7.3,-104.4 L7.7,-103.5 L8.1,-102.6 L9.9,-101.7 L10.2,-100.8 L10.6,-99.9 L11.0,-99.0 L11.4,-98.1 L11.8,-97.2 L13.5,-96.3 L13.8,-95.4 L14.2,-94.5 L14.5,-93.6 L14.9,-92.7 L16.5,-91.8 L16.9,-90.9 L17.2,-90.0 L17.5,-89.1 L17.8,-88.2 L18.1,-87.3 L19.7,-86.4 L20.0,-85.5 L20.2,-84.6 L20.5,-83.7 L20.7,-82.8 L22.3,-81.9 L22.5,-81.0 L22.8,-80.1 L23.0,-79.2 L23.2,-78.3 L24.7,-77.4 L24.9,-76.5 L25.1,-75.6 L25.3,-74.7 L25.4,-73.8 L25.6,-72.9 L27.1,-72.0 L27.2,-71.1 L27.3,-70.2 L27.4,-69.3 L27.5,-68.4 L28.9,-67.5 L29.0,-66.6 L29.1,-65.7 L29.1,-64.8 L29.2,-63.9 L29.2,-63.0 L30.6,-62.1 L30.6,-61.2 L30.6,-60.3 L30.6,-59.4 L30.6,-58.5 L31.9,-57.6 L31.8,-56.7 L31.8,-55.8 L31.7,-54.9 L31.6,-54.0 L32.9,-53.1 L32.7,-52.2 L32.6,-51.3 L32.5,-50.4 L32.3,-49.5 L32.2,-48.6 L33.3,-47.7 L33.1,-46.8 L32.9,-45.9 L32.7,-45.0 L32.5,-44.1 L33.6,-43.2 L33.3,-42.3 L33.0,-41.4 L32.7,-40.5 L32.4,-39.6 L33.4,-38.7 L33.0,-37.8 L32.7,-36.9 L32.3,-36.0 L31.9,-35.1 L31.5,-34.2 L32.4,-33.3 L31.9,-32.4 L31.4,-31.5 L30.9,-30.6 L30.4,-29.7 L31.2,-28.8 L30.7,-27.9 L30.1,-27.0 L29.5,-26.1 L28.9,-25.2 L28.3,-24.3 L28.9,-23.4 L28.3,-22.5 L27.5,-21.6 L26.8,-20.7 L26.0,-19.8 L26.6,-18.9 L25.8,-18.0 L24.9,-17.1 L24.1,-16.2 L23.1,-15.3 L23.6,-14.4 L22.6,-13.5 L21.6,-12.6 L20.5,-11.7 L19.4,-10.8 L18.3,-9.9 L18.4,-9.0 L17.2,-8.1 L15.9,-7.2 L14.5,-6.3 L13.0,-5.4 L12.8,-4.5 L11.1,-3.6 L9.3,-2.7 L7.2,-1.8 L4.6,-0.9 L0.0,-0.0 Z" fill="url(#leafLen)"/><path d="M-0.1,-12.0 Q-9.2,-15.0 -20.5,-22.7" fill="none" stroke="#06220f" stroke-opacity="0.4" stroke-width="0.8"/><path d="M-0.1,-12.0 Q8.9,-15.0 19.7,-22.7" fill="none" stroke="#06220f" stroke-opacity="0.4" stroke-width="0.8"/><path d="M-0.5,-24.0 Q-11.0,-27.0 -24.3,-34.7" fill="none" stroke="#06220f" stroke-opacity="0.4" stroke-width="0.8"/><path d="M-0.5,-24.0 Q10.1,-27.0 22.4,-34.7" fill="none" stroke="#06220f" stroke-opacity="0.4" stroke-width="0.8"/><path d="M-1.0,-36.0 Q-12.0,-39.0 -26.2,-46.7" fill="none" stroke="#06220f" stroke-opacity="0.4" stroke-width="0.8"/><path d="M-1.0,-36.0 Q10.0,-39.0 22.7,-46.7" fill="none" stroke="#06220f" stroke-opacity="0.4" stroke-width="0.8"/><path d="M-1.8,-48.0 Q-12.6,-51.0 -26.6,-58.7" fill="none" stroke="#06220f" stroke-opacity="0.4" stroke-width="0.8"/><path d="M-1.8,-48.0 Q8.9,-51.0 21.1,-58.7" fill="none" stroke="#06220f" stroke-opacity="0.4" stroke-width="0.8"/><path d="M-2.9,-60.0 Q-12.7,-63.0 -25.9,-70.7" fill="none" stroke="#06220f" stroke-opacity="0.4" stroke-width="0.8"/><path d="M-2.9,-60.0 Q7.0,-63.0 17.9,-70.7" fill="none" stroke="#06220f" stroke-opacity="0.4" stroke-width="0.8"/><path d="M-4.1,-72.0 Q-12.6,-75.0 -24.2,-82.7" fill="none" stroke="#06220f" stroke-opacity="0.4" stroke-width="0.8"/><path d="M-4.1,-72.0 Q4.3,-75.0 13.4,-82.7" fill="none" stroke="#06220f" stroke-opacity="0.4" stroke-width="0.8"/><path d="M-5.6,-84.0 Q-12.2,-87.0 -21.9,-94.7" fill="none" stroke="#06220f" stroke-opacity="0.4" stroke-width="0.8"/><path d="M-5.6,-84.0 Q1.0,-87.0 7.6,-94.7" fill="none" stroke="#06220f" stroke-opacity="0.4" stroke-width="0.8"/><path d="M-7.3,-96.0 Q-11.8,-99.0 -19.0,-106.7" fill="none" stroke="#06220f" stroke-opacity="0.4" stroke-width="0.8"/><path d="M-7.3,-96.0 Q-2.8,-99.0 0.9,-106.7" fill="none" stroke="#06220f" stroke-opacity="0.4" stroke-width="0.8"/><path d="M-0.0,-0.0 L-0.0,-6.2 L-0.1,-12.3 L-0.3,-18.5 L-0.5,-24.7 L-0.8,-30.9 L-1.1,-37.0 L-1.5,-43.2 L-2.0,-49.4 L-2.6,-55.6 L-3.2,-61.7 L-3.8,-67.9 L-4.5,-74.1 L-5.3,-80.3 L-6.2,-86.4 L-7.1,-92.6 L-8.1,-98.8 L-9.1,-105.0 L-10.2,-111.1 L-11.4,-117.3 L-12.6,-123.5" fill="none" stroke="#a7d47a" stroke-opacity="0.75" stroke-width="1.5" stroke-linecap="round"/><path d="M-0.0,-0.0 L-4.6,-0.9 L-7.2,-1.8 L-9.4,-2.7 L-11.3,-3.6 L-13.0,-4.5 L-13.1,-5.4 L-14.6,-6.3 L-16.0,-7.2 L-17.4,-8.1 L-18.7,-9.0 L-18.4,-9.9 L-19.6,-10.8 L-20.8,-11.7 L-21.9,-12.6 L-23.0,-13.5 L-24.0,-14.4 L-23.5,-15.3 L-24.5,-16.2 L-25.5,-17.1 L-26.4,-18.0 L-27.3,-18.9 L-26.7,-19.8 L-27.5,-20.7 L-28.4,-21.6 L-29.2,-22.5 L-29.9,-23.4 L-29.2,-24.3 L-29.9,-25.2 L-30.7,-26.1 L-31.4,-27.0 L-32.0,-27.9 L-32.7,-28.8 L-31.9,-29.7 L-32.5,-30.6 L-33.1,-31.5 L-33.7,-32.4 L-34.3,-33.3 L-33.3,-34.2 L-33.9,-35.1 L-34.4,-36.0 L-34.9,-36.9 L-35.4,-37.8 L-35.9,-38.7 L-34.9,-39.6 L-35.4,-40.5 L-35.8,-41.4 L-36.2,-42.3 L-36.7,-43.2 L-35.6,-44.1 L-36.0,-45.0 L-36.3,-45.9 L-36.7,-46.8 L-37.1,-47.7 L-35.9,-48.6 L-36.3,-49.5 L-36.6,-50.4 L-36.9,-51.3 L-37.2,-52.2 L-37.5,-53.1 L-36.3,-54.0 L-36.5,-54.9 L-36.8,-55.8 L-37.0,-56.7 L-37.3,-57.6 L-36.0,-58.5 L-36.2,-59.4 L-36.4,-60.3 L-36.6,-61.2 L-36.8,-62.1 L-35.5,-63.0 L-35.7,-63.9 L-35.9,-64.8 L-36.0,-65.7 L-36.2,-66.6 L-36.3,-67.5 L-34.9,-68.4 L-35.1,-69.3 L-35.2,-70.2 L-35.3,-71.1 L-35.4,-72.0 L-34.0,-72.9 L-34.1,-73.8 L-34.2,-74.7 L-34.2,-75.6 L-34.3,-76.5 L-34.4,-77.4 L-32.9,-78.3 L-33.0,-79.2 L-33.0,-80.1 L-33.1,-81.0 L-33.1,-81.9 L-31.6,-82.8 L-31.6,-83.7 L-31.6,-84.6 L-31.7,-85.5 L-31.7,-86.4 L-30.2,-87.3 L-30.1,-88.2 L-30.1,-89.1 L-30.1,-90.0 L-30.1,-90.9 L-30.1,-91.8 L-28.5,-92.7 L-28.5,-93.6 L-28.4,-94.5 L-28.4,-95.4 L-28.3,-96.3 L-26.8,-97.2 L-26.7,-98.1 L-26.6,-99.0 L-26.6,-99.9 L-26.5,-100.8 L-26.4,-101.7 L-24.8,-102.6 L-24.7,-103.5 L-24.7,-104.4 L-24.6,-105.3 L-24.5,-106.2 L-22.8,-107.1 L-22.7,-108.0 L-22.6,-108.9 L-22.5,-109.8 L-22.4,-110.7 L-20.7,-111.6 L-20.6,-112.5 L-20.5,-113.4 L-20.3,-114.3 L-20.2,-115.2 L-20.0,-116.1 L-18.3,-117.0 L-18.2,-117.9 L-18.0,-118.8 L-17.8,-119.7 L-17.5,-120.6 L-15.8,-121.5 L-15.5,-122.4 L-15.0,-123.3 L-14.4,-124.2 L-13.7,-125.1 L-12.6,-126.0 L-12.6,-126.0 L-11.2,-125.1 L-10.1,-124.2 L-9.2,-123.3 L-8.3,-122.4 L-7.6,-121.5 L-5.7,-120.6 L-5.1,-119.7 L-4.5,-118.8 L-4.0,-117.9 L-3.4,-117.0 L-1.5,-116.1 L-1.0,-115.2 L-0.5,-114.3 L-0.0,-113.4 L0.5,-112.5 L1.0,-111.6 L2.8,-110.7 L3.3,-109.8 L3.7,-108.9 L4.2,-108.0 L4.6,-107.1 L6.4,-106.2 L6.8,-105.3 L7.3,-104.4 L7.7,-103.5 L8.1,-102.6 L9.9,-101.7 L10.2,-100.8 L10.6,-99.9 L11.0,-99.0 L11.4,-98.1 L11.8,-97.2 L13.5,-96.3 L13.8,-95.4 L14.2,-94.5 L14.5,-93.6 L14.9,-92.7 L16.5,-91.8 L16.9,-90.9 L17.2,-90.0 L17.5,-89.1 L17.8,-88.2 L18.1,-87.3 L19.7,-86.4 L20.0,-85.5 L20.2,-84.6 L20.5,-83.7 L20.7,-82.8 L22.3,-81.9 L22.5,-81.0 L22.8,-80.1 L23.0,-79.2 L23.2,-78.3 L24.7,-77.4 L24.9,-76.5 L25.1,-75.6 L25.3,-74.7 L25.4,-73.8 L25.6,-72.9 L27.1,-72.0 L27.2,-71.1 L27.3,-70.2 L27.4,-69.3 L27.5,-68.4 L28.9,-67.5 L29.0,-66.6 L29.1,-65.7 L29.1,-64.8 L29.2,-63.9 L29.2,-63.0 L30.6,-62.1 L30.6,-61.2 L30.6,-60.3 L30.6,-59.4 L30.6,-58.5 L31.9,-57.6 L31.8,-56.7 L31.8,-55.8 L31.7,-54.9 L31.6,-54.0 L32.9,-53.1 L32.7,-52.2 L32.6,-51.3 L32.5,-50.4 L32.3,-49.5 L32.2,-48.6 L33.3,-47.7 L33.1,-46.8 L32.9,-45.9 L32.7,-45.0 L32.5,-44.1 L33.6,-43.2 L33.3,-42.3 L33.0,-41.4 L32.7,-40.5 L32.4,-39.6 L33.4,-38.7 L33.0,-37.8 L32.7,-36.9 L32.3,-36.0 L31.9,-35.1 L31.5,-34.2 L32.4,-33.3 L31.9,-32.4 L31.4,-31.5 L30.9,-30.6 L30.4,-29.7 L31.2,-28.8 L30.7,-27.9 L30.1,-27.0 L29.5,-26.1 L28.9,-25.2 L28.3,-24.3 L28.9,-23.4 L28.3,-22.5 L27.5,-21.6 L26.8,-20.7 L26.0,-19.8 L26.6,-18.9 L25.8,-18.0 L24.9,-17.1 L24.1,-16.2 L23.1,-15.3 L23.6,-14.4 L22.6,-13.5 L21.6,-12.6 L20.5,-11.7 L19.4,-10.8 L18.3,-9.9 L18.4,-9.0 L17.2,-8.1 L15.9,-7.2 L14.5,-6.3 L13.0,-5.4 L12.8,-4.5 L11.1,-3.6 L9.3,-2.7 L7.2,-1.8 L4.6,-0.9 L0.0,-0.0 Z" fill="url(#leafSheen)"/><path d="M-0.0,-0.0 L-4.6,-0.9 L-7.2,-1.8 L-9.4,-2.7 L-11.3,-3.6 L-13.0,-4.5 L-13.1,-5.4 L-14.6,-6.3 L-16.0,-7.2 L-17.4,-8.1 L-18.7,-9.0 L-18.4,-9.9 L-19.6,-10.8 L-20.8,-11.7 L-21.9,-12.6 L-23.0,-13.5 L-24.0,-14.4 L-23.5,-15.3 L-24.5,-16.2 L-25.5,-17.1 L-26.4,-18.0 L-27.3,-18.9 L-26.7,-19.8 L-27.5,-20.7 L-28.4,-21.6 L-29.2,-22.5 L-29.9,-23.4 L-29.2,-24.3 L-29.9,-25.2 L-30.7,-26.1 L-31.4,-27.0 L-32.0,-27.9 L-32.7,-28.8 L-31.9,-29.7 L-32.5,-30.6 L-33.1,-31.5 L-33.7,-32.4 L-34.3,-33.3 L-33.3,-34.2 L-33.9,-35.1 L-34.4,-36.0 L-34.9,-36.9 L-35.4,-37.8 L-35.9,-38.7 L-34.9,-39.6 L-35.4,-40.5 L-35.8,-41.4 L-36.2,-42.3 L-36.7,-43.2 L-35.6,-44.1 L-36.0,-45.0 L-36.3,-45.9 L-36.7,-46.8 L-37.1,-47.7 L-35.9,-48.6 L-36.3,-49.5 L-36.6,-50.4 L-36.9,-51.3 L-37.2,-52.2 L-37.5,-53.1 L-36.3,-54.0 L-36.5,-54.9 L-36.8,-55.8 L-37.0,-56.7 L-37.3,-57.6 L-36.0,-58.5 L-36.2,-59.4 L-36.4,-60.3 L-36.6,-61.2 L-36.8,-62.1 L-35.5,-63.0 L-35.7,-63.9 L-35.9,-64.8 L-36.0,-65.7 L-36.2,-66.6 L-36.3,-67.5 L-34.9,-68.4 L-35.1,-69.3 L-35.2,-70.2 L-35.3,-71.1 L-35.4,-72.0 L-34.0,-72.9 L-34.1,-73.8 L-34.2,-74.7 L-34.2,-75.6 L-34.3,-76.5 L-34.4,-77.4 L-32.9,-78.3 L-33.0,-79.2 L-33.0,-80.1 L-33.1,-81.0 L-33.1,-81.9 L-31.6,-82.8 L-31.6,-83.7 L-31.6,-84.6 L-31.7,-85.5 L-31.7,-86.4 L-30.2,-87.3 L-30.1,-88.2 L-30.1,-89.1 L-30.1,-90.0 L-30.1,-90.9 L-30.1,-91.8 L-28.5,-92.7 L-28.5,-93.6 L-28.4,-94.5 L-28.4,-95.4 L-28.3,-96.3 L-26.8,-97.2 L-26.7,-98.1 L-26.6,-99.0 L-26.6,-99.9 L-26.5,-100.8 L-26.4,-101.7 L-24.8,-102.6 L-24.7,-103.5 L-24.7,-104.4 L-24.6,-105.3 L-24.5,-106.2 L-22.8,-107.1 L-22.7,-108.0 L-22.6,-108.9 L-22.5,-109.8 L-22.4,-110.7 L-20.7,-111.6 L-20.6,-112.5 L-20.5,-113.4 L-20.3,-114.3 L-20.2,-115.2 L-20.0,-116.1 L-18.3,-117.0 L-18.2,-117.9 L-18.0,-118.8 L-17.8,-119.7 L-17.5,-120.6 L-15.8,-121.5 L-15.5,-122.4 L-15.0,-123.3 L-14.4,-124.2 L-13.7,-125.1 L-12.6,-126.0 L-12.6,-126.0 L-11.2,-125.1 L-10.1,-124.2 L-9.2,-123.3 L-8.3,-122.4 L-7.6,-121.5 L-5.7,-120.6 L-5.1,-119.7 L-4.5,-118.8 L-4.0,-117.9 L-3.4,-117.0 L-1.5,-116.1 L-1.0,-115.2 L-0.5,-114.3 L-0.0,-113.4 L0.5,-112.5 L1.0,-111.6 L2.8,-110.7 L3.3,-109.8 L3.7,-108.9 L4.2,-108.0 L4.6,-107.1 L6.4,-106.2 L6.8,-105.3 L7.3,-104.4 L7.7,-103.5 L8.1,-102.6 L9.9,-101.7 L10.2,-100.8 L10.6,-99.9 L11.0,-99.0 L11.4,-98.1 L11.8,-97.2 L13.5,-96.3 L13.8,-95.4 L14.2,-94.5 L14.5,-93.6 L14.9,-92.7 L16.5,-91.8 L16.9,-90.9 L17.2,-90.0 L17.5,-89.1 L17.8,-88.2 L18.1,-87.3 L19.7,-86.4 L20.0,-85.5 L20.2,-84.6 L20.5,-83.7 L20.7,-82.8 L22.3,-81.9 L22.5,-81.0 L22.8,-80.1 L23.0,-79.2 L23.2,-78.3 L24.7,-77.4 L24.9,-76.5 L25.1,-75.6 L25.3,-74.7 L25.4,-73.8 L25.6,-72.9 L27.1,-72.0 L27.2,-71.1 L27.3,-70.2 L27.4,-69.3 L27.5,-68.4 L28.9,-67.5 L29.0,-66.6 L29.1,-65.7 L29.1,-64.8 L29.2,-63.9 L29.2,-63.0 L30.6,-62.1 L30.6,-61.2 L30.6,-60.3 L30.6,-59.4 L30.6,-58.5 L31.9,-57.6 L31.8,-56.7 L31.8,-55.8 L31.7,-54.9 L31.6,-54.0 L32.9,-53.1 L32.7,-52.2 L32.6,-51.3 L32.5,-50.4 L32.3,-49.5 L32.2,-48.6 L33.3,-47.7 L33.1,-46.8 L32.9,-45.9 L32.7,-45.0 L32.5,-44.1 L33.6,-43.2 L33.3,-42.3 L33.0,-41.4 L32.7,-40.5 L32.4,-39.6 L33.4,-38.7 L33.0,-37.8 L32.7,-36.9 L32.3,-36.0 L31.9,-35.1 L31.5,-34.2 L32.4,-33.3 L31.9,-32.4 L31.4,-31.5 L30.9,-30.6 L30.4,-29.7 L31.2,-28.8 L30.7,-27.9 L30.1,-27.0 L29.5,-26.1 L28.9,-25.2 L28.3,-24.3 L28.9,-23.4 L28.3,-22.5 L27.5,-21.6 L26.8,-20.7 L26.0,-19.8 L26.6,-18.9 L25.8,-18.0 L24.9,-17.1 L24.1,-16.2 L23.1,-15.3 L23.6,-14.4 L22.6,-13.5 L21.6,-12.6 L20.5,-11.7 L19.4,-10.8 L18.3,-9.9 L18.4,-9.0 L17.2,-8.1 L15.9,-7.2 L14.5,-6.3 L13.0,-5.4 L12.8,-4.5 L11.1,-3.6 L9.3,-2.7 L7.2,-1.8 L4.6,-0.9 L0.0,-0.0 Z" fill="none" stroke="#0a2c14" stroke-opacity="0.6" stroke-width="0.8"/></g>
<g transform="translate(128 126) rotate(280)" filter="url(#leafShadow)"><path d="M0.0,-0.0 L-4.3,-0.8 L-6.8,-1.7 L-8.8,-2.5 L-10.6,-3.4 L-12.3,-4.2 L-12.3,-5.1 L-13.7,-5.9 L-15.1,-6.7 L-16.3,-7.6 L-17.6,-8.4 L-17.2,-9.3 L-18.3,-10.1 L-19.4,-11.0 L-20.5,-11.8 L-21.5,-12.6 L-22.4,-13.5 L-21.9,-14.3 L-22.8,-15.2 L-23.6,-16.0 L-24.5,-16.9 L-25.3,-17.7 L-24.6,-18.5 L-25.4,-19.4 L-26.1,-20.2 L-26.8,-21.1 L-27.5,-21.9 L-26.7,-22.8 L-27.3,-23.6 L-28.0,-24.4 L-28.6,-25.3 L-29.2,-26.1 L-29.8,-27.0 L-28.8,-27.8 L-29.3,-28.7 L-29.9,-29.5 L-30.4,-30.3 L-30.8,-31.2 L-29.8,-32.0 L-30.3,-32.9 L-30.7,-33.7 L-31.1,-34.6 L-31.5,-35.4 L-31.9,-36.2 L-30.8,-37.1 L-31.1,-37.9 L-31.4,-38.8 L-31.8,-39.6 L-32.1,-40.5 L-30.9,-41.3 L-31.2,-42.1 L-31.4,-43.0 L-31.7,-43.8 L-31.9,-44.7 L-30.6,-45.5 L-30.9,-46.4 L-31.1,-47.2 L-31.2,-48.0 L-31.4,-48.9 L-31.6,-49.7 L-30.2,-50.6 L-30.4,-51.4 L-30.5,-52.3 L-30.6,-53.1 L-30.7,-53.9 L-29.3,-54.8 L-29.4,-55.6 L-29.5,-56.5 L-29.5,-57.3 L-29.6,-58.2 L-28.1,-59.0 L-28.1,-59.8 L-28.2,-60.7 L-28.2,-61.5 L-28.2,-62.4 L-28.1,-63.2 L-26.6,-64.1 L-26.6,-64.9 L-26.6,-65.7 L-26.5,-66.6 L-26.4,-67.4 L-24.9,-68.3 L-24.8,-69.1 L-24.7,-70.0 L-24.6,-70.8 L-24.5,-71.6 L-24.4,-72.5 L-22.8,-73.3 L-22.7,-74.2 L-22.5,-75.0 L-22.4,-75.9 L-22.2,-76.7 L-20.6,-77.5 L-20.4,-78.4 L-20.2,-79.2 L-20.0,-80.1 L-19.9,-80.9 L-18.2,-81.8 L-17.9,-82.6 L-17.7,-83.4 L-17.5,-84.3 L-17.3,-85.1 L-17.1,-86.0 L-15.3,-86.8 L-15.1,-87.7 L-14.8,-88.5 L-14.6,-89.3 L-14.3,-90.2 L-12.5,-91.0 L-12.3,-91.9 L-12.0,-92.7 L-11.7,-93.6 L-11.4,-94.4 L-11.1,-95.2 L-9.3,-96.1 L-8.9,-96.9 L-8.6,-97.8 L-8.3,-98.6 L-8.0,-99.5 L-6.1,-100.3 L-5.8,-101.1 L-5.4,-102.0 L-5.1,-102.8 L-4.7,-103.7 L-2.8,-104.5 L-2.4,-105.4 L-2.0,-106.2 L-1.6,-107.0 L-1.2,-107.9 L-0.8,-108.7 L1.1,-109.6 L1.5,-110.4 L2.0,-111.3 L2.4,-112.1 L3.1,-112.9 L4.9,-113.8 L5.5,-114.6 L6.3,-115.5 L7.1,-116.3 L8.1,-117.2 L9.4,-118.0 L9.4,-118.0 L10.5,-117.2 L11.2,-116.3 L11.8,-115.5 L12.3,-114.6 L12.6,-113.8 L14.1,-112.9 L14.5,-112.1 L14.7,-111.3 L15.0,-110.4 L15.2,-109.6 L16.7,-108.7 L16.9,-107.9 L17.1,-107.0 L17.3,-106.2 L17.5,-105.4 L17.6,-104.5 L19.1,-103.7 L19.3,-102.8 L19.5,-102.0 L19.6,-101.1 L19.7,-100.3 L21.2,-99.5 L21.4,-98.6 L21.5,-97.8 L21.6,-96.9 L21.8,-96.1 L23.2,-95.2 L23.3,-94.4 L23.5,-93.6 L23.6,-92.7 L23.7,-91.9 L23.8,-91.0 L25.2,-90.2 L25.3,-89.3 L25.4,-88.5 L25.4,-87.7 L25.5,-86.8 L26.9,-86.0 L27.0,-85.1 L27.1,-84.3 L27.1,-83.4 L27.2,-82.6 L27.2,-81.8 L28.6,-80.9 L28.6,-80.1 L28.7,-79.2 L28.7,-78.4 L28.7,-77.5 L30.1,-76.7 L30.1,-75.9 L30.1,-75.0 L30.1,-74.2 L30.1,-73.3 L31.4,-72.5 L31.4,-71.6 L31.3,-70.8 L31.3,-70.0 L31.2,-69.1 L31.2,-68.3 L32.5,-67.4 L32.4,-66.6 L32.3,-65.7 L32.3,-64.9 L32.2,-64.1 L33.4,-63.2 L33.3,-62.4 L33.2,-61.5 L33.1,-60.7 L33.0,-59.8 L32.8,-59.0 L34.0,-58.2 L33.9,-57.3 L33.7,-56.5 L33.5,-55.6 L33.4,-54.8 L34.5,-53.9 L34.3,-53.1 L34.1,-52.3 L33.9,-51.4 L33.7,-50.6 L34.8,-49.7 L34.5,-48.9 L34.3,-48.0 L34.0,-47.2 L33.7,-46.4 L33.4,-45.5 L34.5,-44.7 L34.2,-43.8 L33.9,-43.0 L33.5,-42.1 L33.2,-41.3 L34.2,-40.5 L33.8,-39.6 L33.4,-38.8 L33.0,-37.9 L32.6,-37.1 L33.5,-36.2 L33.1,-35.4 L32.6,-34.6 L32.2,-33.7 L31.7,-32.9 L31.2,-32.0 L32.0,-31.2 L31.5,-30.3 L31.0,-29.5 L30.4,-28.7 L29.8,-27.8 L30.6,-27.0 L30.0,-26.1 L29.4,-25.3 L28.7,-24.4 L28.1,-23.6 L27.4,-22.8 L28.0,-21.9 L27.3,-21.1 L26.6,-20.2 L25.8,-19.4 L25.0,-18.5 L25.6,-17.7 L24.8,-16.9 L23.9,-16.0 L23.0,-15.2 L22.1,-14.3 L22.5,-13.5 L21.6,-12.6 L20.6,-11.8 L19.5,-11.0 L18.4,-10.1 L17.3,-9.3 L17.5,-8.4 L16.3,-7.6 L15.0,-6.7 L13.7,-5.9 L12.3,-5.1 L12.2,-4.2 L10.5,-3.4 L8.8,-2.5 L6.8,-1.7 L4.3,-0.8 L0.0,-0.0 Z" fill="url(#leafBase)"/><path d="M0.0,-0.0 L-4.3,-0.8 L-6.8,-1.7 L-8.8,-2.5 L-10.6,-3.4 L-12.3,-4.2 L-12.3,-5.1 L-13.7,-5.9 L-15.1,-6.7 L-16.3,-7.6 L-17.6,-8.4 L-17.2,-9.3 L-18.3,-10.1 L-19.4,-11.0 L-20.5,-11.8 L-21.5,-12.6 L-22.4,-13.5 L-21.9,-14.3 L-22.8,-15.2 L-23.6,-16.0 L-24.5,-16.9 L-25.3,-17.7 L-24.6,-18.5 L-25.4,-19.4 L-26.1,-20.2 L-26.8,-21.1 L-27.5,-21.9 L-26.7,-22.8 L-27.3,-23.6 L-28.0,-24.4 L-28.6,-25.3 L-29.2,-26.1 L-29.8,-27.0 L-28.8,-27.8 L-29.3,-28.7 L-29.9,-29.5 L-30.4,-30.3 L-30.8,-31.2 L-29.8,-32.0 L-30.3,-32.9 L-30.7,-33.7 L-31.1,-34.6 L-31.5,-35.4 L-31.9,-36.2 L-30.8,-37.1 L-31.1,-37.9 L-31.4,-38.8 L-31.8,-39.6 L-32.1,-40.5 L-30.9,-41.3 L-31.2,-42.1 L-31.4,-43.0 L-31.7,-43.8 L-31.9,-44.7 L-30.6,-45.5 L-30.9,-46.4 L-31.1,-47.2 L-31.2,-48.0 L-31.4,-48.9 L-31.6,-49.7 L-30.2,-50.6 L-30.4,-51.4 L-30.5,-52.3 L-30.6,-53.1 L-30.7,-53.9 L-29.3,-54.8 L-29.4,-55.6 L-29.5,-56.5 L-29.5,-57.3 L-29.6,-58.2 L-28.1,-59.0 L-28.1,-59.8 L-28.2,-60.7 L-28.2,-61.5 L-28.2,-62.4 L-28.1,-63.2 L-26.6,-64.1 L-26.6,-64.9 L-26.6,-65.7 L-26.5,-66.6 L-26.4,-67.4 L-24.9,-68.3 L-24.8,-69.1 L-24.7,-70.0 L-24.6,-70.8 L-24.5,-71.6 L-24.4,-72.5 L-22.8,-73.3 L-22.7,-74.2 L-22.5,-75.0 L-22.4,-75.9 L-22.2,-76.7 L-20.6,-77.5 L-20.4,-78.4 L-20.2,-79.2 L-20.0,-80.1 L-19.9,-80.9 L-18.2,-81.8 L-17.9,-82.6 L-17.7,-83.4 L-17.5,-84.3 L-17.3,-85.1 L-17.1,-86.0 L-15.3,-86.8 L-15.1,-87.7 L-14.8,-88.5 L-14.6,-89.3 L-14.3,-90.2 L-12.5,-91.0 L-12.3,-91.9 L-12.0,-92.7 L-11.7,-93.6 L-11.4,-94.4 L-11.1,-95.2 L-9.3,-96.1 L-8.9,-96.9 L-8.6,-97.8 L-8.3,-98.6 L-8.0,-99.5 L-6.1,-100.3 L-5.8,-101.1 L-5.4,-102.0 L-5.1,-102.8 L-4.7,-103.7 L-2.8,-104.5 L-2.4,-105.4 L-2.0,-106.2 L-1.6,-107.0 L-1.2,-107.9 L-0.8,-108.7 L1.1,-109.6 L1.5,-110.4 L2.0,-111.3 L2.4,-112.1 L3.1,-112.9 L4.9,-113.8 L5.5,-114.6 L6.3,-115.5 L7.1,-116.3 L8.1,-117.2 L9.4,-118.0 L9.4,-118.0 L10.5,-117.2 L11.2,-116.3 L11.8,-115.5 L12.3,-114.6 L12.6,-113.8 L14.1,-112.9 L14.5,-112.1 L14.7,-111.3 L15.0,-110.4 L15.2,-109.6 L16.7,-108.7 L16.9,-107.9 L17.1,-107.0 L17.3,-106.2 L17.5,-105.4 L17.6,-104.5 L19.1,-103.7 L19.3,-102.8 L19.5,-102.0 L19.6,-101.1 L19.7,-100.3 L21.2,-99.5 L21.4,-98.6 L21.5,-97.8 L21.6,-96.9 L21.8,-96.1 L23.2,-95.2 L23.3,-94.4 L23.5,-93.6 L23.6,-92.7 L23.7,-91.9 L23.8,-91.0 L25.2,-90.2 L25.3,-89.3 L25.4,-88.5 L25.4,-87.7 L25.5,-86.8 L26.9,-86.0 L27.0,-85.1 L27.1,-84.3 L27.1,-83.4 L27.2,-82.6 L27.2,-81.8 L28.6,-80.9 L28.6,-80.1 L28.7,-79.2 L28.7,-78.4 L28.7,-77.5 L30.1,-76.7 L30.1,-75.9 L30.1,-75.0 L30.1,-74.2 L30.1,-73.3 L31.4,-72.5 L31.4,-71.6 L31.3,-70.8 L31.3,-70.0 L31.2,-69.1 L31.2,-68.3 L32.5,-67.4 L32.4,-66.6 L32.3,-65.7 L32.3,-64.9 L32.2,-64.1 L33.4,-63.2 L33.3,-62.4 L33.2,-61.5 L33.1,-60.7 L33.0,-59.8 L32.8,-59.0 L34.0,-58.2 L33.9,-57.3 L33.7,-56.5 L33.5,-55.6 L33.4,-54.8 L34.5,-53.9 L34.3,-53.1 L34.1,-52.3 L33.9,-51.4 L33.7,-50.6 L34.8,-49.7 L34.5,-48.9 L34.3,-48.0 L34.0,-47.2 L33.7,-46.4 L33.4,-45.5 L34.5,-44.7 L34.2,-43.8 L33.9,-43.0 L33.5,-42.1 L33.2,-41.3 L34.2,-40.5 L33.8,-39.6 L33.4,-38.8 L33.0,-37.9 L32.6,-37.1 L33.5,-36.2 L33.1,-35.4 L32.6,-34.6 L32.2,-33.7 L31.7,-32.9 L31.2,-32.0 L32.0,-31.2 L31.5,-30.3 L31.0,-29.5 L30.4,-28.7 L29.8,-27.8 L30.6,-27.0 L30.0,-26.1 L29.4,-25.3 L28.7,-24.4 L28.1,-23.6 L27.4,-22.8 L28.0,-21.9 L27.3,-21.1 L26.6,-20.2 L25.8,-19.4 L25.0,-18.5 L25.6,-17.7 L24.8,-16.9 L23.9,-16.0 L23.0,-15.2 L22.1,-14.3 L22.5,-13.5 L21.6,-12.6 L20.6,-11.8 L19.5,-11.0 L18.4,-10.1 L17.3,-9.3 L17.5,-8.4 L16.3,-7.6 L15.0,-6.7 L13.7,-5.9 L12.3,-5.1 L12.2,-4.2 L10.5,-3.4 L8.8,-2.5 L6.8,-1.7 L4.3,-0.8 L0.0,-0.0 Z" fill="url(#leafLen)"/><path d="M0.1,-11.2 Q-8.4,-14.2 -18.6,-21.3" fill="none" stroke="#06220f" stroke-opacity="0.4" stroke-width="0.8"/><path d="M0.1,-11.2 Q8.6,-14.2 19.2,-21.3" fill="none" stroke="#06220f" stroke-opacity="0.4" stroke-width="0.8"/><path d="M0.3,-22.5 Q-9.6,-25.5 -21.3,-32.5" fill="none" stroke="#06220f" stroke-opacity="0.4" stroke-width="0.8"/><path d="M0.3,-22.5 Q10.2,-25.5 22.7,-32.5" fill="none" stroke="#06220f" stroke-opacity="0.4" stroke-width="0.8"/><path d="M0.8,-33.7 Q-9.6,-36.7 -21.7,-43.7" fill="none" stroke="#06220f" stroke-opacity="0.4" stroke-width="0.8"/><path d="M0.8,-33.7 Q11.1,-36.7 24.3,-43.7" fill="none" stroke="#06220f" stroke-opacity="0.4" stroke-width="0.8"/><path d="M1.4,-45.0 Q-8.7,-48.0 -20.4,-55.0" fill="none" stroke="#06220f" stroke-opacity="0.4" stroke-width="0.8"/><path d="M1.4,-45.0 Q11.5,-48.0 24.5,-55.0" fill="none" stroke="#06220f" stroke-opacity="0.4" stroke-width="0.8"/><path d="M2.1,-56.2 Q-7.1,-59.2 -17.6,-66.2" fill="none" stroke="#06220f" stroke-opacity="0.4" stroke-width="0.8"/><path d="M2.1,-56.2 Q11.4,-59.2 23.6,-66.2" fill="none" stroke="#06220f" stroke-opacity="0.4" stroke-width="0.8"/><path d="M3.1,-67.4 Q-4.9,-70.4 -13.6,-77.5" fill="none" stroke="#06220f" stroke-opacity="0.4" stroke-width="0.8"/><path d="M3.1,-67.4 Q11.0,-70.4 21.7,-77.5" fill="none" stroke="#06220f" stroke-opacity="0.4" stroke-width="0.8"/><path d="M4.2,-78.7 Q-2.1,-81.7 -8.6,-88.7" fill="none" stroke="#06220f" stroke-opacity="0.4" stroke-width="0.8"/><path d="M4.2,-78.7 Q10.4,-81.7 19.2,-88.7" fill="none" stroke="#06220f" stroke-opacity="0.4" stroke-width="0.8"/><path d="M5.5,-89.9 Q1.3,-92.9 -2.6,-99.9" fill="none" stroke="#06220f" stroke-opacity="0.4" stroke-width="0.8"/><path d="M5.5,-89.9 Q9.7,-92.9 16.1,-99.9" fill="none" stroke="#06220f" stroke-opacity="0.4" stroke-width="0.8"/><path d="M0.0,-0.0 L0.0,-5.8 L0.1,-11.6 L0.2,-17.3 L0.4,-23.1 L0.6,-28.9 L0.8,-34.7 L1.2,-40.5 L1.5,-46.3 L1.9,-52.0 L2.4,-57.8 L2.9,-63.6 L3.4,-69.4 L4.0,-75.2 L4.6,-80.9 L5.3,-86.7 L6.0,-92.5 L6.8,-98.3 L7.6,-104.1 L8.5,-109.9 L9.4,-115.6" fill="none" stroke="#a7d47a" stroke-opacity="0.75" stroke-width="1.5" stroke-linecap="round"/><path d="M0.0,-0.0 L-4.3,-0.8 L-6.8,-1.7 L-8.8,-2.5 L-10.6,-3.4 L-12.3,-4.2 L-12.3,-5.1 L-13.7,-5.9 L-15.1,-6.7 L-16.3,-7.6 L-17.6,-8.4 L-17.2,-9.3 L-18.3,-10.1 L-19.4,-11.0 L-20.5,-11.8 L-21.5,-12.6 L-22.4,-13.5 L-21.9,-14.3 L-22.8,-15.2 L-23.6,-16.0 L-24.5,-16.9 L-25.3,-17.7 L-24.6,-18.5 L-25.4,-19.4 L-26.1,-20.2 L-26.8,-21.1 L-27.5,-21.9 L-26.7,-22.8 L-27.3,-23.6 L-28.0,-24.4 L-28.6,-25.3 L-29.2,-26.1 L-29.8,-27.0 L-28.8,-27.8 L-29.3,-28.7 L-29.9,-29.5 L-30.4,-30.3 L-30.8,-31.2 L-29.8,-32.0 L-30.3,-32.9 L-30.7,-33.7 L-31.1,-34.6 L-31.5,-35.4 L-31.9,-36.2 L-30.8,-37.1 L-31.1,-37.9 L-31.4,-38.8 L-31.8,-39.6 L-32.1,-40.5 L-30.9,-41.3 L-31.2,-42.1 L-31.4,-43.0 L-31.7,-43.8 L-31.9,-44.7 L-30.6,-45.5 L-30.9,-46.4 L-31.1,-47.2 L-31.2,-48.0 L-31.4,-48.9 L-31.6,-49.7 L-30.2,-50.6 L-30.4,-51.4 L-30.5,-52.3 L-30.6,-53.1 L-30.7,-53.9 L-29.3,-54.8 L-29.4,-55.6 L-29.5,-56.5 L-29.5,-57.3 L-29.6,-58.2 L-28.1,-59.0 L-28.1,-59.8 L-28.2,-60.7 L-28.2,-61.5 L-28.2,-62.4 L-28.1,-63.2 L-26.6,-64.1 L-26.6,-64.9 L-26.6,-65.7 L-26.5,-66.6 L-26.4,-67.4 L-24.9,-68.3 L-24.8,-69.1 L-24.7,-70.0 L-24.6,-70.8 L-24.5,-71.6 L-24.4,-72.5 L-22.8,-73.3 L-22.7,-74.2 L-22.5,-75.0 L-22.4,-75.9 L-22.2,-76.7 L-20.6,-77.5 L-20.4,-78.4 L-20.2,-79.2 L-20.0,-80.1 L-19.9,-80.9 L-18.2,-81.8 L-17.9,-82.6 L-17.7,-83.4 L-17.5,-84.3 L-17.3,-85.1 L-17.1,-86.0 L-15.3,-86.8 L-15.1,-87.7 L-14.8,-88.5 L-14.6,-89.3 L-14.3,-90.2 L-12.5,-91.0 L-12.3,-91.9 L-12.0,-92.7 L-11.7,-93.6 L-11.4,-94.4 L-11.1,-95.2 L-9.3,-96.1 L-8.9,-96.9 L-8.6,-97.8 L-8.3,-98.6 L-8.0,-99.5 L-6.1,-100.3 L-5.8,-101.1 L-5.4,-102.0 L-5.1,-102.8 L-4.7,-103.7 L-2.8,-104.5 L-2.4,-105.4 L-2.0,-106.2 L-1.6,-107.0 L-1.2,-107.9 L-0.8,-108.7 L1.1,-109.6 L1.5,-110.4 L2.0,-111.3 L2.4,-112.1 L3.1,-112.9 L4.9,-113.8 L5.5,-114.6 L6.3,-115.5 L7.1,-116.3 L8.1,-117.2 L9.4,-118.0 L9.4,-118.0 L10.5,-117.2 L11.2,-116.3 L11.8,-115.5 L12.3,-114.6 L12.6,-113.8 L14.1,-112.9 L14.5,-112.1 L14.7,-111.3 L15.0,-110.4 L15.2,-109.6 L16.7,-108.7 L16.9,-107.9 L17.1,-107.0 L17.3,-106.2 L17.5,-105.4 L17.6,-104.5 L19.1,-103.7 L19.3,-102.8 L19.5,-102.0 L19.6,-101.1 L19.7,-100.3 L21.2,-99.5 L21.4,-98.6 L21.5,-97.8 L21.6,-96.9 L21.8,-96.1 L23.2,-95.2 L23.3,-94.4 L23.5,-93.6 L23.6,-92.7 L23.7,-91.9 L23.8,-91.0 L25.2,-90.2 L25.3,-89.3 L25.4,-88.5 L25.4,-87.7 L25.5,-86.8 L26.9,-86.0 L27.0,-85.1 L27.1,-84.3 L27.1,-83.4 L27.2,-82.6 L27.2,-81.8 L28.6,-80.9 L28.6,-80.1 L28.7,-79.2 L28.7,-78.4 L28.7,-77.5 L30.1,-76.7 L30.1,-75.9 L30.1,-75.0 L30.1,-74.2 L30.1,-73.3 L31.4,-72.5 L31.4,-71.6 L31.3,-70.8 L31.3,-70.0 L31.2,-69.1 L31.2,-68.3 L32.5,-67.4 L32.4,-66.6 L32.3,-65.7 L32.3,-64.9 L32.2,-64.1 L33.4,-63.2 L33.3,-62.4 L33.2,-61.5 L33.1,-60.7 L33.0,-59.8 L32.8,-59.0 L34.0,-58.2 L33.9,-57.3 L33.7,-56.5 L33.5,-55.6 L33.4,-54.8 L34.5,-53.9 L34.3,-53.1 L34.1,-52.3 L33.9,-51.4 L33.7,-50.6 L34.8,-49.7 L34.5,-48.9 L34.3,-48.0 L34.0,-47.2 L33.7,-46.4 L33.4,-45.5 L34.5,-44.7 L34.2,-43.8 L33.9,-43.0 L33.5,-42.1 L33.2,-41.3 L34.2,-40.5 L33.8,-39.6 L33.4,-38.8 L33.0,-37.9 L32.6,-37.1 L33.5,-36.2 L33.1,-35.4 L32.6,-34.6 L32.2,-33.7 L31.7,-32.9 L31.2,-32.0 L32.0,-31.2 L31.5,-30.3 L31.0,-29.5 L30.4,-28.7 L29.8,-27.8 L30.6,-27.0 L30.0,-26.1 L29.4,-25.3 L28.7,-24.4 L28.1,-23.6 L27.4,-22.8 L28.0,-21.9 L27.3,-21.1 L26.6,-20.2 L25.8,-19.4 L25.0,-18.5 L25.6,-17.7 L24.8,-16.9 L23.9,-16.0 L23.0,-15.2 L22.1,-14.3 L22.5,-13.5 L21.6,-12.6 L20.6,-11.8 L19.5,-11.0 L18.4,-10.1 L17.3,-9.3 L17.5,-8.4 L16.3,-7.6 L15.0,-6.7 L13.7,-5.9 L12.3,-5.1 L12.2,-4.2 L10.5,-3.4 L8.8,-2.5 L6.8,-1.7 L4.3,-0.8 L0.0,-0.0 Z" fill="url(#leafSheen)"/><path d="M0.0,-0.0 L-4.3,-0.8 L-6.8,-1.7 L-8.8,-2.5 L-10.6,-3.4 L-12.3,-4.2 L-12.3,-5.1 L-13.7,-5.9 L-15.1,-6.7 L-16.3,-7.6 L-17.6,-8.4 L-17.2,-9.3 L-18.3,-10.1 L-19.4,-11.0 L-20.5,-11.8 L-21.5,-12.6 L-22.4,-13.5 L-21.9,-14.3 L-22.8,-15.2 L-23.6,-16.0 L-24.5,-16.9 L-25.3,-17.7 L-24.6,-18.5 L-25.4,-19.4 L-26.1,-20.2 L-26.8,-21.1 L-27.5,-21.9 L-26.7,-22.8 L-27.3,-23.6 L-28.0,-24.4 L-28.6,-25.3 L-29.2,-26.1 L-29.8,-27.0 L-28.8,-27.8 L-29.3,-28.7 L-29.9,-29.5 L-30.4,-30.3 L-30.8,-31.2 L-29.8,-32.0 L-30.3,-32.9 L-30.7,-33.7 L-31.1,-34.6 L-31.5,-35.4 L-31.9,-36.2 L-30.8,-37.1 L-31.1,-37.9 L-31.4,-38.8 L-31.8,-39.6 L-32.1,-40.5 L-30.9,-41.3 L-31.2,-42.1 L-31.4,-43.0 L-31.7,-43.8 L-31.9,-44.7 L-30.6,-45.5 L-30.9,-46.4 L-31.1,-47.2 L-31.2,-48.0 L-31.4,-48.9 L-31.6,-49.7 L-30.2,-50.6 L-30.4,-51.4 L-30.5,-52.3 L-30.6,-53.1 L-30.7,-53.9 L-29.3,-54.8 L-29.4,-55.6 L-29.5,-56.5 L-29.5,-57.3 L-29.6,-58.2 L-28.1,-59.0 L-28.1,-59.8 L-28.2,-60.7 L-28.2,-61.5 L-28.2,-62.4 L-28.1,-63.2 L-26.6,-64.1 L-26.6,-64.9 L-26.6,-65.7 L-26.5,-66.6 L-26.4,-67.4 L-24.9,-68.3 L-24.8,-69.1 L-24.7,-70.0 L-24.6,-70.8 L-24.5,-71.6 L-24.4,-72.5 L-22.8,-73.3 L-22.7,-74.2 L-22.5,-75.0 L-22.4,-75.9 L-22.2,-76.7 L-20.6,-77.5 L-20.4,-78.4 L-20.2,-79.2 L-20.0,-80.1 L-19.9,-80.9 L-18.2,-81.8 L-17.9,-82.6 L-17.7,-83.4 L-17.5,-84.3 L-17.3,-85.1 L-17.1,-86.0 L-15.3,-86.8 L-15.1,-87.7 L-14.8,-88.5 L-14.6,-89.3 L-14.3,-90.2 L-12.5,-91.0 L-12.3,-91.9 L-12.0,-92.7 L-11.7,-93.6 L-11.4,-94.4 L-11.1,-95.2 L-9.3,-96.1 L-8.9,-96.9 L-8.6,-97.8 L-8.3,-98.6 L-8.0,-99.5 L-6.1,-100.3 L-5.8,-101.1 L-5.4,-102.0 L-5.1,-102.8 L-4.7,-103.7 L-2.8,-104.5 L-2.4,-105.4 L-2.0,-106.2 L-1.6,-107.0 L-1.2,-107.9 L-0.8,-108.7 L1.1,-109.6 L1.5,-110.4 L2.0,-111.3 L2.4,-112.1 L3.1,-112.9 L4.9,-113.8 L5.5,-114.6 L6.3,-115.5 L7.1,-116.3 L8.1,-117.2 L9.4,-118.0 L9.4,-118.0 L10.5,-117.2 L11.2,-116.3 L11.8,-115.5 L12.3,-114.6 L12.6,-113.8 L14.1,-112.9 L14.5,-112.1 L14.7,-111.3 L15.0,-110.4 L15.2,-109.6 L16.7,-108.7 L16.9,-107.9 L17.1,-107.0 L17.3,-106.2 L17.5,-105.4 L17.6,-104.5 L19.1,-103.7 L19.3,-102.8 L19.5,-102.0 L19.6,-101.1 L19.7,-100.3 L21.2,-99.5 L21.4,-98.6 L21.5,-97.8 L21.6,-96.9 L21.8,-96.1 L23.2,-95.2 L23.3,-94.4 L23.5,-93.6 L23.6,-92.7 L23.7,-91.9 L23.8,-91.0 L25.2,-90.2 L25.3,-89.3 L25.4,-88.5 L25.4,-87.7 L25.5,-86.8 L26.9,-86.0 L27.0,-85.1 L27.1,-84.3 L27.1,-83.4 L27.2,-82.6 L27.2,-81.8 L28.6,-80.9 L28.6,-80.1 L28.7,-79.2 L28.7,-78.4 L28.7,-77.5 L30.1,-76.7 L30.1,-75.9 L30.1,-75.0 L30.1,-74.2 L30.1,-73.3 L31.4,-72.5 L31.4,-71.6 L31.3,-70.8 L31.3,-70.0 L31.2,-69.1 L31.2,-68.3 L32.5,-67.4 L32.4,-66.6 L32.3,-65.7 L32.3,-64.9 L32.2,-64.1 L33.4,-63.2 L33.3,-62.4 L33.2,-61.5 L33.1,-60.7 L33.0,-59.8 L32.8,-59.0 L34.0,-58.2 L33.9,-57.3 L33.7,-56.5 L33.5,-55.6 L33.4,-54.8 L34.5,-53.9 L34.3,-53.1 L34.1,-52.3 L33.9,-51.4 L33.7,-50.6 L34.8,-49.7 L34.5,-48.9 L34.3,-48.0 L34.0,-47.2 L33.7,-46.4 L33.4,-45.5 L34.5,-44.7 L34.2,-43.8 L33.9,-43.0 L33.5,-42.1 L33.2,-41.3 L34.2,-40.5 L33.8,-39.6 L33.4,-38.8 L33.0,-37.9 L32.6,-37.1 L33.5,-36.2 L33.1,-35.4 L32.6,-34.6 L32.2,-33.7 L31.7,-32.9 L31.2,-32.0 L32.0,-31.2 L31.5,-30.3 L31.0,-29.5 L30.4,-28.7 L29.8,-27.8 L30.6,-27.0 L30.0,-26.1 L29.4,-25.3 L28.7,-24.4 L28.1,-23.6 L27.4,-22.8 L28.0,-21.9 L27.3,-21.1 L26.6,-20.2 L25.8,-19.4 L25.0,-18.5 L25.6,-17.7 L24.8,-16.9 L23.9,-16.0 L23.0,-15.2 L22.1,-14.3 L22.5,-13.5 L21.6,-12.6 L20.6,-11.8 L19.5,-11.0 L18.4,-10.1 L17.3,-9.3 L17.5,-8.4 L16.3,-7.6 L15.0,-6.7 L13.7,-5.9 L12.3,-5.1 L12.2,-4.2 L10.5,-3.4 L8.8,-2.5 L6.8,-1.7 L4.3,-0.8 L0.0,-0.0 Z" fill="none" stroke="#0a2c14" stroke-opacity="0.6" stroke-width="0.8"/></g>
<g transform="translate(128 122) rotate(-9)">
<g filter="url(#sh1)">
<g transform="rotate(-0.7) scale(1.018 1.035) skewX(-5.7)">
<path d="M0,0 C-21.3,-8.3 -46.8,-37.3 -36.1,-63.3 C-29.8,-77.2 -14.9,-83.7 -5.1,-80.4 Q0,-74.4 5.1,-82.0 C15.0,-85.3 29.9,-78.7 36.3,-64.6 C47.0,-37.3 21.4,-8.3 0,0 Z" fill="url(#gA)"/>
<path d="M0,0 C-21.3,-8.3 -46.8,-37.3 -36.1,-63.3 C-29.8,-77.2 -14.9,-83.7 -5.1,-80.4 Q0,-74.4 5.1,-82.0 C15.0,-85.3 29.9,-78.7 36.3,-64.6 C47.0,-37.3 21.4,-8.3 0,0 Z" fill="#2a0010" fill-opacity="0.053"/>
<path d="M0,-3.3 Q-12.0,-41.4 -17.7,-75.5" fill="none" stroke="#4a0618" stroke-opacity="0.22" stroke-width="0.7"/>
<path d="M0,-3.3 Q-6.0,-41.4 -10.8,-75.5" fill="none" stroke="#4a0618" stroke-opacity="0.13" stroke-width="0.7"/>
<path d="M0,-3.3 Q0.0,-41.4 0.0,-75.5" fill="none" stroke="#4a0618" stroke-opacity="0.24" stroke-width="0.7"/>
<path d="M0,-3.3 Q6.0,-41.4 10.6,-75.5" fill="none" stroke="#4a0618" stroke-opacity="0.19" stroke-width="0.7"/>
<path d="M0,-3.3 Q12.0,-41.4 18.1,-75.5" fill="none" stroke="#4a0618" stroke-opacity="0.12" stroke-width="0.7"/>
<path d="M0,0 C-21.3,-8.3 -46.8,-37.3 -36.1,-63.3 C-29.8,-77.2 -14.9,-83.7 -5.1,-80.4 Q0,-74.4 5.1,-82.0 C15.0,-85.3 29.9,-78.7 36.3,-64.6 C47.0,-37.3 21.4,-8.3 0,0 Z" fill="url(#sheen)"/>
<path d="M0,0 C-21.3,-8.3 -46.8,-37.3 -36.1,-63.3 C-29.8,-77.2 -14.9,-83.7 -5.1,-80.4 Q0,-74.4 5.1,-82.0 C15.0,-85.3 29.9,-78.7 36.3,-64.6 C47.0,-37.3 21.4,-8.3 0,0 Z" fill="none" stroke="#ff9db8" stroke-opacity="0.55" stroke-width="0.8" stroke-linejoin="round"/>
</g>
<g transform="rotate(51.8) scale(1.003 1.017) skewX(-0.0)">
<path d="M0,0 C-18.3,-7.6 -40.3,-34.3 -31.1,-59.2 C-25.7,-72.2 -12.8,-78.2 -4.4,-75.2 Q0,-70.0 4.3,-77.0 C12.4,-80.1 24.9,-73.9 30.2,-60.7 C39.1,-34.3 17.8,-7.6 0,0 Z" fill="url(#gA)"/>
<path d="M0,0 C-18.3,-7.6 -40.3,-34.3 -31.1,-59.2 C-25.7,-72.2 -12.8,-78.2 -4.4,-75.2 Q0,-70.0 4.3,-77.0 C12.4,-80.1 24.9,-73.9 30.2,-60.7 C39.1,-34.3 17.8,-7.6 0,0 Z" fill="#fff" fill-opacity="0.046"/>
<path d="M0,-3.0 Q-10.6,-38.1 -17.8,-70.6" fill="none" stroke="#4a0618" stroke-opacity="0.15" stroke-width="0.7"/>
<path d="M0,-3.0 Q-5.3,-38.1 -10.4,-70.6" fill="none" stroke="#4a0618" stroke-opacity="0.24" stroke-width="0.7"/>
<path d="M0,-3.0 Q0.0,-38.1 0.0,-70.6" fill="none" stroke="#4a0618" stroke-opacity="0.20" stroke-width="0.7"/>
<path d="M0,-3.0 Q5.3,-38.1 8.5,-70.6" fill="none" stroke="#4a0618" stroke-opacity="0.15" stroke-width="0.7"/>
<path d="M0,-3.0 Q10.6,-38.1 16.9,-70.6" fill="none" stroke="#4a0618" stroke-opacity="0.13" stroke-width="0.7"/>
<path d="M0,0 C-18.3,-7.6 -40.3,-34.3 -31.1,-59.2 C-25.7,-72.2 -12.8,-78.2 -4.4,-75.2 Q0,-70.0 4.3,-77.0 C12.4,-80.1 24.9,-73.9 30.2,-60.7 C39.1,-34.3 17.8,-7.6 0,0 Z" fill="url(#sheen)"/>
<path d="M0,0 C-18.3,-7.6 -40.3,-34.3 -31.1,-59.2 C-25.7,-72.2 -12.8,-78.2 -4.4,-75.2 Q0,-70.0 4.3,-77.0 C12.4,-80.1 24.9,-73.9 30.2,-60.7 C39.1,-34.3 17.8,-7.6 0,0 Z" fill="none" stroke="#ff9db8" stroke-opacity="0.55" stroke-width="0.8" stroke-linejoin="round"/>
</g>
<g transform="rotate(106.6) scale(1.057 0.996) skewX(6.7)">
<path d="M0,0 C-20.8,-8.1 -45.7,-36.3 -35.3,-61.1 C-29.1,-74.4 -14.5,-80.6 -5.0,-77.5 Q0,-70.8 5.4,-78.5 C15.7,-81.7 31.4,-75.3 38.2,-61.8 C49.4,-36.3 22.5,-8.1 0,0 Z" fill="url(#gA)"/>
<path d="M0,0 C-20.8,-8.1 -45.7,-36.3 -35.3,-61.1 C-29.1,-74.4 -14.5,-80.6 -5.0,-77.5 Q0,-70.8 5.4,-78.5 C15.7,-81.7 31.4,-75.3 38.2,-61.8 C49.4,-36.3 22.5,-8.1 0,0 Z" fill="#2a0010" fill-opacity="0.020"/>
<path d="M0,-3.2 Q-11.8,-40.3 -17.3,-72.8" fill="none" stroke="#4a0618" stroke-opacity="0.20" stroke-width="0.7"/>
<path d="M0,-3.2 Q-5.9,-40.3 -10.9,-72.8" fill="none" stroke="#4a0618" stroke-opacity="0.15" stroke-width="0.7"/>
<path d="M0,-3.2 Q0.0,-40.3 0.0,-72.8" fill="none" stroke="#4a0618" stroke-opacity="0.16" stroke-width="0.7"/>
<path d="M0,-3.2 Q5.9,-40.3 11.5,-72.8" fill="none" stroke="#4a0618" stroke-opacity="0.21" stroke-width="0.7"/>
<path d="M0,-3.2 Q11.8,-40.3 17.6,-72.8" fill="none" stroke="#4a0618" stroke-opacity="0.15" stroke-width="0.7"/>
<path d="M0,0 C-20.8,-8.1 -45.7,-36.3 -35.3,-61.1 C-29.1,-74.4 -14.5,-80.6 -5.0,-77.5 Q0,-70.8 5.4,-78.5 C15.7,-81.7 31.4,-75.3 38.2,-61.8 C49.4,-36.3 22.5,-8.1 0,0 Z" fill="url(#sheen)"/>
<path d="M0,0 C-20.8,-8.1 -45.7,-36.3 -35.3,-61.1 C-29.1,-74.4 -14.5,-80.6 -5.0,-77.5 Q0,-70.8 5.4,-78.5 C15.7,-81.7 31.4,-75.3 38.2,-61.8 C49.4,-36.3 22.5,-8.1 0,0 Z" fill="none" stroke="#ff9db8" stroke-opacity="0.55" stroke-width="0.8" stroke-linejoin="round"/>
</g>
<g transform="rotate(148.7) scale(0.948 1.017) skewX(-5.4)">
<path d="M0,0 C-20.0,-7.6 -44.0,-34.3 -34.0,-58.4 C-28.0,-71.1 -14.0,-77.1 -4.8,-74.1 Q0,-68.9 5.1,-76.5 C14.8,-79.6 29.6,-73.4 35.9,-60.3 C46.5,-34.3 21.1,-7.6 0,0 Z" fill="url(#gA)"/>
<path d="M0,0 C-20.0,-7.6 -44.0,-34.3 -34.0,-58.4 C-28.0,-71.1 -14.0,-77.1 -4.8,-74.1 Q0,-68.9 5.1,-76.5 C14.8,-79.6 29.6,-73.4 35.9,-60.3 C46.5,-34.3 21.1,-7.6 0,0 Z" fill="#2a0010" fill-opacity="0.012"/>
<path d="M0,-3.0 Q-11.7,-38.1 -18.1,-69.6" fill="none" stroke="#4a0618" stroke-opacity="0.15" stroke-width="0.7"/>
<path d="M0,-3.0 Q-5.9,-38.1 -11.4,-69.6" fill="none" stroke="#4a0618" stroke-opacity="0.22" stroke-width="0.7"/>
<path d="M0,-3.0 Q0.0,-38.1 0.0,-69.6" fill="none" stroke="#4a0618" stroke-opacity="0.23" stroke-width="0.7"/>
<path d="M0,-3.0 Q5.9,-38.1 9.0,-69.6" fill="none" stroke="#4a0618" stroke-opacity="0.17" stroke-width="0.7"/>
<path d="M0,-3.0 Q11.7,-38.1 22.1,-69.6" fill="none" stroke="#4a0618" stroke-opacity="0.20" stroke-width="0.7"/>
<path d="M0,0 C-20.0,-7.6 -44.0,-34.3 -34.0,-58.4 C-28.0,-71.1 -14.0,-77.1 -4.8,-74.1 Q0,-68.9 5.1,-76.5 C14.8,-79.6 29.6,-73.4 35.9,-60.3 C46.5,-34.3 21.1,-7.6 0,0 Z" fill="url(#sheen)"/>
<path d="M0,0 C-20.0,-7.6 -44.0,-34.3 -34.0,-58.4 C-28.0,-71.1 -14.0,-77.1 -4.8,-74.1 Q0,-68.9 5.1,-76.5 C14.8,-79.6 29.6,-73.4 35.9,-60.3 C46.5,-34.3 21.1,-7.6 0,0 Z" fill="none" stroke="#ff9db8" stroke-opacity="0.55" stroke-width="0.8" stroke-linejoin="round"/>
</g>
<g transform="rotate(200.1) scale(0.943 1.010) skewX(-3.6)">
<path d="M0,0 C-18.4,-8.8 -40.6,-39.8 -31.3,-68.1 C-25.8,-83.0 -12.9,-90.0 -4.4,-86.5 Q0,-80.9 4.8,-85.3 C13.9,-88.7 27.7,-81.8 33.7,-67.2 C43.6,-39.8 19.8,-8.8 0,0 Z" fill="url(#gA)"/>
<path d="M0,0 C-18.4,-8.8 -40.6,-39.8 -31.3,-68.1 C-25.8,-83.0 -12.9,-90.0 -4.4,-86.5 Q0,-80.9 4.8,-85.3 C13.9,-88.7 27.7,-81.8 33.7,-67.2 C43.6,-39.8 19.8,-8.8 0,0 Z" fill="#fff" fill-opacity="0.032"/>
<path d="M0,-3.5 Q-10.7,-44.2 -17.4,-81.2" fill="none" stroke="#4a0618" stroke-opacity="0.17" stroke-width="0.7"/>
<path d="M0,-3.5 Q-5.3,-44.2 -10.4,-81.2" fill="none" stroke="#4a0618" stroke-opacity="0.18" stroke-width="0.7"/>
<path d="M0,-3.5 Q0.0,-44.2 0.0,-81.2" fill="none" stroke="#4a0618" stroke-opacity="0.22" stroke-width="0.7"/>
<path d="M0,-3.5 Q5.3,-44.2 8.2,-81.2" fill="none" stroke="#4a0618" stroke-opacity="0.14" stroke-width="0.7"/>
<path d="M0,-3.5 Q10.7,-44.2 20.5,-81.2" fill="none" stroke="#4a0618" stroke-opacity="0.22" stroke-width="0.7"/>
<path d="M0,0 C-18.4,-8.8 -40.6,-39.8 -31.3,-68.1 C-25.8,-83.0 -12.9,-90.0 -4.4,-86.5 Q0,-80.9 4.8,-85.3 C13.9,-88.7 27.7,-81.8 33.7,-67.2 C43.6,-39.8 19.8,-8.8 0,0 Z" fill="url(#sheen)"/>
<path d="M0,0 C-18.4,-8.8 -40.6,-39.8 -31.3,-68.1 C-25.8,-83.0 -12.9,-90.0 -4.4,-86.5 Q0,-80.9 4.8,-85.3 C13.9,-88.7 27.7,-81.8 33.7,-67.2 C43.6,-39.8 19.8,-8.8 0,0 Z" fill="none" stroke="#ff9db8" stroke-opacity="0.55" stroke-width="0.8" stroke-linejoin="round"/>
</g>
<g transform="rotate(253.6) scale(0.989 0.952) skewX(-6.5)">
<path d="M0,0 C-22.0,-7.8 -48.5,-35.1 -37.5,-62.2 C-30.9,-75.7 -15.4,-82.1 -5.3,-78.9 Q0,-72.0 4.8,-77.6 C13.9,-80.8 27.8,-74.5 33.8,-61.2 C43.7,-35.1 19.9,-7.8 0,0 Z" fill="url(#gA)"/>
<path d="M0,0 C-22.0,-7.8 -48.5,-35.1 -37.5,-62.2 C-30.9,-75.7 -15.4,-82.1 -5.3,-78.9 Q0,-72.0 4.8,-77.6 C13.9,-80.8 27.8,-74.5 33.8,-61.2 C43.7,-35.1 19.9,-7.8 0,0 Z" fill="#fff" fill-opacity="0.112"/>
<path d="M0,-3.1 Q-11.6,-39.0 -18.1,-74.1" fill="none" stroke="#4a0618" stroke-opacity="0.20" stroke-width="0.7"/>
<path d="M0,-3.1 Q-5.8,-39.0 -9.1,-74.1" fill="none" stroke="#4a0618" stroke-opacity="0.22" stroke-width="0.7"/>
<path d="M0,-3.1 Q0.0,-39.0 0.0,-74.1" fill="none" stroke="#4a0618" stroke-opacity="0.16" stroke-width="0.7"/>
<path d="M0,-3.1 Q5.8,-39.0 8.9,-74.1" fill="none" stroke="#4a0618" stroke-opacity="0.21" stroke-width="0.7"/>
<path d="M0,-3.1 Q11.6,-39.0 17.0,-74.1" fill="none" stroke="#4a0618" stroke-opacity="0.15" stroke-width="0.7"/>
<path d="M0,0 C-22.0,-7.8 -48.5,-35.1 -37.5,-62.2 C-30.9,-75.7 -15.4,-82.1 -5.3,-78.9 Q0,-72.0 4.8,-77.6 C13.9,-80.8 27.8,-74.5 33.8,-61.2 C43.7,-35.1 19.9,-7.8 0,0 Z" fill="url(#sheen)"/>
<path d="M0,0 C-22.0,-7.8 -48.5,-35.1 -37.5,-62.2 C-30.9,-75.7 -15.4,-82.1 -5.3,-78.9 Q0,-72.0 4.8,-77.6 C13.9,-80.8 27.8,-74.5 33.8,-61.2 C43.7,-35.1 19.9,-7.8 0,0 Z" fill="none" stroke="#ff9db8" stroke-opacity="0.55" stroke-width="0.8" stroke-linejoin="round"/>
</g>
<g transform="rotate(309.4) scale(0.992 0.947) skewX(-4.5)">
<path d="M0,0 C-19.7,-8.7 -43.4,-39.0 -33.6,-65.6 C-27.6,-79.9 -13.8,-86.6 -4.7,-83.3 Q0,-78.3 5.2,-84.6 C15.1,-88.0 30.2,-81.2 36.6,-66.6 C47.4,-39.0 21.6,-8.7 0,0 Z" fill="url(#gA)"/>
<path d="M0,0 C-19.7,-8.7 -43.4,-39.0 -33.6,-65.6 C-27.6,-79.9 -13.8,-86.6 -4.7,-83.3 Q0,-78.3 5.2,-84.6 C15.1,-88.0 30.2,-81.2 36.6,-66.6 C47.4,-39.0 21.6,-8.7 0,0 Z" fill="#2a0010" fill-opacity="0.030"/>
<path d="M0,-3.5 Q-11.4,-43.3 -19.8,-78.2" fill="none" stroke="#4a0618" stroke-opacity="0.14" stroke-width="0.7"/>
<path d="M0,-3.5 Q-5.7,-43.3 -9.3,-78.2" fill="none" stroke="#4a0618" stroke-opacity="0.23" stroke-width="0.7"/>
<path d="M0,-3.5 Q0.0,-43.3 0.0,-78.2" fill="none" stroke="#4a0618" stroke-opacity="0.20" stroke-width="0.7"/>
<path d="M0,-3.5 Q5.7,-43.3 10.3,-78.2" fill="none" stroke="#4a0618" stroke-opacity="0.19" stroke-width="0.7"/>
<path d="M0,-3.5 Q11.4,-43.3 17.2,-78.2" fill="none" stroke="#4a0618" stroke-opacity="0.12" stroke-width="0.7"/>
<path d="M0,0 C-19.7,-8.7 -43.4,-39.0 -33.6,-65.6 C-27.6,-79.9 -13.8,-86.6 -4.7,-83.3 Q0,-78.3 5.2,-84.6 C15.1,-88.0 30.2,-81.2 36.6,-66.6 C47.4,-39.0 21.6,-8.7 0,0 Z" fill="url(#sheen)"/>
<path d="M0,0 C-19.7,-8.7 -43.4,-39.0 -33.6,-65.6 C-27.6,-79.9 -13.8,-86.6 -4.7,-83.3 Q0,-78.3 5.2,-84.6 C15.1,-88.0 30.2,-81.2 36.6,-66.6 C47.4,-39.0 21.6,-8.7 0,0 Z" fill="none" stroke="#ff9db8" stroke-opacity="0.55" stroke-width="0.8" stroke-linejoin="round"/>
</g>
</g>
<circle cx="0" cy="0" r="64" fill="url(#ao60)"/>
<g filter="url(#sh2)">
<g transform="rotate(15.3) scale(0.975 1.060) skewX(-5.9)">
<path d="M0,0 C-18.7,-7.2 -41.1,-32.6 -31.8,-56.5 C-26.2,-68.8 -13.1,-74.6 -4.5,-71.7 Q0,-66.2 3.9,-72.7 C11.5,-75.7 22.9,-69.8 27.8,-57.3 C36.0,-32.6 16.4,-7.2 0,0 Z" fill="url(#gB)"/>
<path d="M0,0 C-18.7,-7.2 -41.1,-32.6 -31.8,-56.5 C-26.2,-68.8 -13.1,-74.6 -4.5,-71.7 Q0,-66.2 3.9,-72.7 C11.5,-75.7 22.9,-69.8 27.8,-57.3 C36.0,-32.6 16.4,-7.2 0,0 Z" fill="#fff" fill-opacity="0.020"/>
<path d="M0,-2.9 Q-9.8,-36.2 -17.9,-67.3" fill="none" stroke="#4a0618" stroke-opacity="0.23" stroke-width="0.7"/>
<path d="M0,-2.9 Q-4.9,-36.2 -9.0,-67.3" fill="none" stroke="#4a0618" stroke-opacity="0.20" stroke-width="0.7"/>
<path d="M0,-2.9 Q0.0,-36.2 0.0,-67.3" fill="none" stroke="#4a0618" stroke-opacity="0.23" stroke-width="0.7"/>
<path d="M0,-2.9 Q4.9,-36.2 7.9,-67.3" fill="none" stroke="#4a0618" stroke-opacity="0.20" stroke-width="0.7"/>
<path d="M0,-2.9 Q9.8,-36.2 18.8,-67.3" fill="none" stroke="#4a0618" stroke-opacity="0.22" stroke-width="0.7"/>
<path d="M0,0 C-18.7,-7.2 -41.1,-32.6 -31.8,-56.5 C-26.2,-68.8 -13.1,-74.6 -4.5,-71.7 Q0,-66.2 3.9,-72.7 C11.5,-75.7 22.9,-69.8 27.8,-57.3 C36.0,-32.6 16.4,-7.2 0,0 Z" fill="url(#sheen)"/>
<path d="M0,0 C-18.7,-7.2 -41.1,-32.6 -31.8,-56.5 C-26.2,-68.8 -13.1,-74.6 -4.5,-71.7 Q0,-66.2 3.9,-72.7 C11.5,-75.7 22.9,-69.8 27.8,-57.3 C36.0,-32.6 16.4,-7.2 0,0 Z" fill="none" stroke="#ff9db8" stroke-opacity="0.55" stroke-width="0.8" stroke-linejoin="round"/>
</g>
<g transform="rotate(80.8) scale(0.941 1.017) skewX(6.9)">
<path d="M0,0 C-18.2,-7.1 -40.0,-32.0 -30.9,-55.8 C-25.4,-67.9 -12.7,-73.7 -4.4,-70.8 Q0,-66.1 4.4,-70.9 C12.8,-73.8 25.6,-68.0 31.1,-55.9 C40.3,-32.0 18.3,-7.1 0,0 Z" fill="url(#gB)"/>
<path d="M0,0 C-18.2,-7.1 -40.0,-32.0 -30.9,-55.8 C-25.4,-67.9 -12.7,-73.7 -4.4,-70.8 Q0,-66.1 4.4,-70.9 C12.8,-73.8 25.6,-68.0 31.1,-55.9 C40.3,-32.0 18.3,-7.1 0,0 Z" fill="#fff" fill-opacity="0.094"/>
<path d="M0,-2.8 Q-10.1,-35.6 -18.3,-66.5" fill="none" stroke="#4a0618" stroke-opacity="0.17" stroke-width="0.7"/>
<path d="M0,-2.8 Q-5.0,-35.6 -9.2,-66.5" fill="none" stroke="#4a0618" stroke-opacity="0.19" stroke-width="0.7"/>
<path d="M0,-2.8 Q0.0,-35.6 0.0,-66.5" fill="none" stroke="#4a0618" stroke-opacity="0.22" stroke-width="0.7"/>
<path d="M0,-2.8 Q5.0,-35.6 7.4,-66.5" fill="none" stroke="#4a0618" stroke-opacity="0.21" stroke-width="0.7"/>
<path d="M0,-2.8 Q10.1,-35.6 14.6,-66.5" fill="none" stroke="#4a0618" stroke-opacity="0.19" stroke-width="0.7"/>
<path d="M0,0 C-18.2,-7.1 -40.0,-32.0 -30.9,-55.8 C-25.4,-67.9 -12.7,-73.7 -4.4,-70.8 Q0,-66.1 4.4,-70.9 C12.8,-73.8 25.6,-68.0 31.1,-55.9 C40.3,-32.0 18.3,-7.1 0,0 Z" fill="url(#sheen)"/>
<path d="M0,0 C-18.2,-7.1 -40.0,-32.0 -30.9,-55.8 C-25.4,-67.9 -12.7,-73.7 -4.4,-70.8 Q0,-66.1 4.4,-70.9 C12.8,-73.8 25.6,-68.0 31.1,-55.9 C40.3,-32.0 18.3,-7.1 0,0 Z" fill="none" stroke="#ff9db8" stroke-opacity="0.55" stroke-width="0.8" stroke-linejoin="round"/>
</g>
<g transform="rotate(141.7) scale(0.972 1.021) skewX(-4.2)">
<path d="M0,0 C-17.5,-6.5 -38.6,-29.3 -29.8,-50.0 C-24.5,-60.9 -12.3,-66.0 -4.2,-63.5 Q0,-57.8 4.3,-62.5 C12.5,-65.1 24.9,-60.0 30.3,-49.3 C39.2,-29.3 17.8,-6.5 0,0 Z" fill="url(#gB)"/>
<path d="M0,0 C-17.5,-6.5 -38.6,-29.3 -29.8,-50.0 C-24.5,-60.9 -12.3,-66.0 -4.2,-63.5 Q0,-57.8 4.3,-62.5 C12.5,-65.1 24.9,-60.0 30.3,-49.3 C39.2,-29.3 17.8,-6.5 0,0 Z" fill="#2a0010" fill-opacity="0.100"/>
<path d="M0,-2.6 Q-9.8,-32.5 -18.8,-59.6" fill="none" stroke="#4a0618" stroke-opacity="0.20" stroke-width="0.7"/>
<path d="M0,-2.6 Q-4.9,-32.5 -8.2,-59.6" fill="none" stroke="#4a0618" stroke-opacity="0.23" stroke-width="0.7"/>
<path d="M0,-2.6 Q0.0,-32.5 0.0,-59.6" fill="none" stroke="#4a0618" stroke-opacity="0.20" stroke-width="0.7"/>
<path d="M0,-2.6 Q4.9,-32.5 7.5,-59.6" fill="none" stroke="#4a0618" stroke-opacity="0.17" stroke-width="0.7"/>
<path d="M0,-2.6 Q9.8,-32.5 18.3,-59.6" fill="none" stroke="#4a0618" stroke-opacity="0.23" stroke-width="0.7"/>
<path d="M0,0 C-17.5,-6.5 -38.6,-29.3 -29.8,-50.0 C-24.5,-60.9 -12.3,-66.0 -4.2,-63.5 Q0,-57.8 4.3,-62.5 C12.5,-65.1 24.9,-60.0 30.3,-49.3 C39.2,-29.3 17.8,-6.5 0,0 Z" fill="url(#sheen)"/>
<path d="M0,0 C-17.5,-6.5 -38.6,-29.3 -29.8,-50.0 C-24.5,-60.9 -12.3,-66.0 -4.2,-63.5 Q0,-57.8 4.3,-62.5 C12.5,-65.1 24.9,-60.0 30.3,-49.3 C39.2,-29.3 17.8,-6.5 0,0 Z" fill="none" stroke="#ff9db8" stroke-opacity="0.55" stroke-width="0.8" stroke-linejoin="round"/>
</g>
<g transform="rotate(207.3) scale(1.030 1.054) skewX(-3.1)">
<path d="M0,0 C-16.8,-6.7 -36.9,-30.0 -28.5,-53.1 C-23.5,-64.7 -11.7,-70.1 -4.0,-67.4 Q0,-62.7 3.9,-67.5 C11.4,-70.2 22.9,-64.7 27.8,-53.1 C36.0,-30.0 16.3,-6.7 0,0 Z" fill="url(#gB)"/>
<path d="M0,0 C-16.8,-6.7 -36.9,-30.0 -28.5,-53.1 C-23.5,-64.7 -11.7,-70.1 -4.0,-67.4 Q0,-62.7 3.9,-67.5 C11.4,-70.2 22.9,-64.7 27.8,-53.1 C36.0,-30.0 16.3,-6.7 0,0 Z" fill="#2a0010" fill-opacity="0.100"/>
<path d="M0,-2.7 Q-9.6,-33.4 -16.1,-63.3" fill="none" stroke="#4a0618" stroke-opacity="0.15" stroke-width="0.7"/>
<path d="M0,-2.7 Q-4.8,-33.4 -7.4,-63.3" fill="none" stroke="#4a0618" stroke-opacity="0.17" stroke-width="0.7"/>
<path d="M0,-2.7 Q0.0,-33.4 0.0,-63.3" fill="none" stroke="#4a0618" stroke-opacity="0.18" stroke-width="0.7"/>
<path d="M0,-2.7 Q4.8,-33.4 7.7,-63.3" fill="none" stroke="#4a0618" stroke-opacity="0.22" stroke-width="0.7"/>
<path d="M0,-2.7 Q9.6,-33.4 18.9,-63.3" fill="none" stroke="#4a0618" stroke-opacity="0.17" stroke-width="0.7"/>
<path d="M0,0 C-16.8,-6.7 -36.9,-30.0 -28.5,-53.1 C-23.5,-64.7 -11.7,-70.1 -4.0,-67.4 Q0,-62.7 3.9,-67.5 C11.4,-70.2 22.9,-64.7 27.8,-53.1 C36.0,-30.0 16.3,-6.7 0,0 Z" fill="url(#sheen)"/>
<path d="M0,0 C-16.8,-6.7 -36.9,-30.0 -28.5,-53.1 C-23.5,-64.7 -11.7,-70.1 -4.0,-67.4 Q0,-62.7 3.9,-67.5 C11.4,-70.2 22.9,-64.7 27.8,-53.1 C36.0,-30.0 16.3,-6.7 0,0 Z" fill="none" stroke="#ff9db8" stroke-opacity="0.55" stroke-width="0.8" stroke-linejoin="round"/>
</g>
<g transform="rotate(256.0) scale(0.933 0.956) skewX(-0.6)">
<path d="M0,0 C-16.9,-6.3 -37.1,-28.3 -28.7,-48.5 C-23.6,-59.1 -11.8,-64.0 -4.0,-61.6 Q0,-57.0 4.4,-63.4 C13.0,-65.9 26.0,-60.8 31.5,-49.9 C40.8,-28.3 18.5,-6.3 0,0 Z" fill="url(#gB)"/>
<path d="M0,0 C-16.9,-6.3 -37.1,-28.3 -28.7,-48.5 C-23.6,-59.1 -11.8,-64.0 -4.0,-61.6 Q0,-57.0 4.4,-63.4 C13.0,-65.9 26.0,-60.8 31.5,-49.9 C40.8,-28.3 18.5,-6.3 0,0 Z" fill="#2a0010" fill-opacity="0.151"/>
<path d="M0,-2.5 Q-10.1,-31.5 -18.9,-57.8" fill="none" stroke="#4a0618" stroke-opacity="0.15" stroke-width="0.7"/>
<path d="M0,-2.5 Q-5.0,-31.5 -7.6,-57.8" fill="none" stroke="#4a0618" stroke-opacity="0.13" stroke-width="0.7"/>
<path d="M0,-2.5 Q0.0,-31.5 0.0,-57.8" fill="none" stroke="#4a0618" stroke-opacity="0.17" stroke-width="0.7"/>
<path d="M0,-2.5 Q5.0,-31.5 8.9,-57.8" fill="none" stroke="#4a0618" stroke-opacity="0.20" stroke-width="0.7"/>
<path d="M0,-2.5 Q10.1,-31.5 18.8,-57.8" fill="none" stroke="#4a0618" stroke-opacity="0.24" stroke-width="0.7"/>
<path d="M0,0 C-16.9,-6.3 -37.1,-28.3 -28.7,-48.5 C-23.6,-59.1 -11.8,-64.0 -4.0,-61.6 Q0,-57.0 4.4,-63.4 C13.0,-65.9 26.0,-60.8 31.5,-49.9 C40.8,-28.3 18.5,-6.3 0,0 Z" fill="url(#sheen)"/>
<path d="M0,0 C-16.9,-6.3 -37.1,-28.3 -28.7,-48.5 C-23.6,-59.1 -11.8,-64.0 -4.0,-61.6 Q0,-57.0 4.4,-63.4 C13.0,-65.9 26.0,-60.8 31.5,-49.9 C40.8,-28.3 18.5,-6.3 0,0 Z" fill="none" stroke="#ff9db8" stroke-opacity="0.55" stroke-width="0.8" stroke-linejoin="round"/>
</g>
<g transform="rotate(324.6) scale(0.968 0.981) skewX(2.8)">
<path d="M0,0 C-16.2,-6.5 -35.6,-29.1 -27.5,-51.1 C-22.6,-62.3 -11.3,-67.5 -3.9,-64.9 Q0,-60.4 3.8,-62.8 C11.0,-65.4 22.1,-60.3 26.8,-49.5 C34.7,-29.1 15.8,-6.5 0,0 Z" fill="url(#gB)"/>
<path d="M0,0 C-16.2,-6.5 -35.6,-29.1 -27.5,-51.1 C-22.6,-62.3 -11.3,-67.5 -3.9,-64.9 Q0,-60.4 3.8,-62.8 C11.0,-65.4 22.1,-60.3 26.8,-49.5 C34.7,-29.1 15.8,-6.5 0,0 Z" fill="#fff" fill-opacity="0.014"/>
<path d="M0,-2.6 Q-9.5,-32.4 -16.7,-61.0" fill="none" stroke="#4a0618" stroke-opacity="0.21" stroke-width="0.7"/>
<path d="M0,-2.6 Q-4.7,-32.4 -7.8,-61.0" fill="none" stroke="#4a0618" stroke-opacity="0.22" stroke-width="0.7"/>
<path d="M0,-2.6 Q0.0,-32.4 0.0,-61.0" fill="none" stroke="#4a0618" stroke-opacity="0.13" stroke-width="0.7"/>
<path d="M0,-2.6 Q4.7,-32.4 9.1,-61.0" fill="none" stroke="#4a0618" stroke-opacity="0.21" stroke-width="0.7"/>
<path d="M0,-2.6 Q9.5,-32.4 14.2,-61.0" fill="none" stroke="#4a0618" stroke-opacity="0.17" stroke-width="0.7"/>
<path d="M0,0 C-16.2,-6.5 -35.6,-29.1 -27.5,-51.1 C-22.6,-62.3 -11.3,-67.5 -3.9,-64.9 Q0,-60.4 3.8,-62.8 C11.0,-65.4 22.1,-60.3 26.8,-49.5 C34.7,-29.1 15.8,-6.5 0,0 Z" fill="url(#sheen)"/>
<path d="M0,0 C-16.2,-6.5 -35.6,-29.1 -27.5,-51.1 C-22.6,-62.3 -11.3,-67.5 -3.9,-64.9 Q0,-60.4 3.8,-62.8 C11.0,-65.4 22.1,-60.3 26.8,-49.5 C34.7,-29.1 15.8,-6.5 0,0 Z" fill="none" stroke="#ff9db8" stroke-opacity="0.55" stroke-width="0.8" stroke-linejoin="round"/>
</g>
</g>
<circle cx="0" cy="0" r="48" fill="url(#ao60)"/>
<g filter="url(#sh3)">
<g transform="rotate(12.3) scale(1.021 0.965) skewX(3.1)">
<path d="M0,0 C-13.9,-5.6 -30.5,-25.4 -23.6,-45.2 C-19.4,-55.1 -9.7,-59.7 -3.3,-57.4 Q0,-52.7 3.5,-55.8 C10.1,-58.0 20.2,-53.5 24.6,-44.0 C31.8,-25.4 14.5,-5.6 0,0 Z" fill="url(#gC)"/>
<path d="M0,0 C-13.9,-5.6 -30.5,-25.4 -23.6,-45.2 C-19.4,-55.1 -9.7,-59.7 -3.3,-57.4 Q0,-52.7 3.5,-55.8 C10.1,-58.0 20.2,-53.5 24.6,-44.0 C31.8,-25.4 14.5,-5.6 0,0 Z" fill="#fff" fill-opacity="0.080"/>
<path d="M0,-2.3 Q-7.7,-28.2 -13.6,-53.9" fill="none" stroke="#4a0618" stroke-opacity="0.21" stroke-width="0.7"/>
<path d="M0,-2.3 Q-3.8,-28.2 -5.9,-53.9" fill="none" stroke="#4a0618" stroke-opacity="0.23" stroke-width="0.7"/>
<path d="M0,-2.3 Q0.0,-28.2 0.0,-53.9" fill="none" stroke="#4a0618" stroke-opacity="0.24" stroke-width="0.7"/>
<path d="M0,-2.3 Q3.8,-28.2 6.6,-53.9" fill="none" stroke="#4a0618" stroke-opacity="0.21" stroke-width="0.7"/>
<path d="M0,-2.3 Q7.7,-28.2 12.3,-53.9" fill="none" stroke="#4a0618" stroke-opacity="0.23" stroke-width="0.7"/>
<path d="M0,0 C-13.9,-5.6 -30.5,-25.4 -23.6,-45.2 C-19.4,-55.1 -9.7,-59.7 -3.3,-57.4 Q0,-52.7 3.5,-55.8 C10.1,-58.0 20.2,-53.5 24.6,-44.0 C31.8,-25.4 14.5,-5.6 0,0 Z" fill="url(#sheen)"/>
<path d="M0,0 C-13.9,-5.6 -30.5,-25.4 -23.6,-45.2 C-19.4,-55.1 -9.7,-59.7 -3.3,-57.4 Q0,-52.7 3.5,-55.8 C10.1,-58.0 20.2,-53.5 24.6,-44.0 C31.8,-25.4 14.5,-5.6 0,0 Z" fill="none" stroke="#ff8fae" stroke-opacity="0.55" stroke-width="0.8" stroke-linejoin="round"/>
</g>
<g transform="rotate(88.4) scale(1.043 0.948) skewX(4.2)">
<path d="M0,0 C-13.0,-5.2 -28.5,-23.3 -22.0,-40.3 C-18.1,-49.1 -9.1,-53.2 -3.1,-51.2 Q0,-47.0 3.2,-49.7 C9.2,-51.8 18.4,-47.7 22.4,-39.2 C28.9,-23.3 13.2,-5.2 0,0 Z" fill="url(#gC)"/>
<path d="M0,0 C-13.0,-5.2 -28.5,-23.3 -22.0,-40.3 C-18.1,-49.1 -9.1,-53.2 -3.1,-51.2 Q0,-47.0 3.2,-49.7 C9.2,-51.8 18.4,-47.7 22.4,-39.2 C28.9,-23.3 13.2,-5.2 0,0 Z" fill="#2a0010" fill-opacity="0.099"/>
<path d="M0,-2.1 Q-7.3,-25.9 -11.8,-48.1" fill="none" stroke="#4a0618" stroke-opacity="0.21" stroke-width="0.7"/>
<path d="M0,-2.1 Q-3.7,-25.9 -5.5,-48.1" fill="none" stroke="#4a0618" stroke-opacity="0.14" stroke-width="0.7"/>
<path d="M0,-2.1 Q0.0,-25.9 0.0,-48.1" fill="none" stroke="#4a0618" stroke-opacity="0.21" stroke-width="0.7"/>
<path d="M0,-2.1 Q3.7,-25.9 6.9,-48.1" fill="none" stroke="#4a0618" stroke-opacity="0.20" stroke-width="0.7"/>
<path d="M0,-2.1 Q7.3,-25.9 14.2,-48.1" fill="none" stroke="#4a0618" stroke-opacity="0.18" stroke-width="0.7"/>
<path d="M0,0 C-13.0,-5.2 -28.5,-23.3 -22.0,-40.3 C-18.1,-49.1 -9.1,-53.2 -3.1,-51.2 Q0,-47.0 3.2,-49.7 C9.2,-51.8 18.4,-47.7 22.4,-39.2 C28.9,-23.3 13.2,-5.2 0,0 Z" fill="url(#sheen)"/>
<path d="M0,0 C-13.0,-5.2 -28.5,-23.3 -22.0,-40.3 C-18.1,-49.1 -9.1,-53.2 -3.1,-51.2 Q0,-47.0 3.2,-49.7 C9.2,-51.8 18.4,-47.7 22.4,-39.2 C28.9,-23.3 13.2,-5.2 0,0 Z" fill="none" stroke="#ff8fae" stroke-opacity="0.55" stroke-width="0.8" stroke-linejoin="round"/>
</g>
<g transform="rotate(162.1) scale(1.048 1.007) skewX(-2.6)">
<path d="M0,0 C-13.4,-4.9 -29.5,-22.3 -22.8,-38.9 C-18.8,-47.4 -9.4,-51.4 -3.2,-49.4 Q0,-45.5 3.1,-49.1 C9.1,-51.0 18.2,-47.1 22.1,-38.7 C28.6,-22.3 13.0,-4.9 0,0 Z" fill="url(#gC)"/>
<path d="M0,0 C-13.4,-4.9 -29.5,-22.3 -22.8,-38.9 C-18.8,-47.4 -9.4,-51.4 -3.2,-49.4 Q0,-45.5 3.1,-49.1 C9.1,-51.0 18.2,-47.1 22.1,-38.7 C28.6,-22.3 13.0,-4.9 0,0 Z" fill="#2a0010" fill-opacity="0.026"/>
<path d="M0,-2.0 Q-7.5,-24.7 -14.1,-46.4" fill="none" stroke="#4a0618" stroke-opacity="0.23" stroke-width="0.7"/>
<path d="M0,-2.0 Q-3.7,-24.7 -5.8,-46.4" fill="none" stroke="#4a0618" stroke-opacity="0.22" stroke-width="0.7"/>
<path d="M0,-2.0 Q0.0,-24.7 0.0,-46.4" fill="none" stroke="#4a0618" stroke-opacity="0.18" stroke-width="0.7"/>
<path d="M0,-2.0 Q3.7,-24.7 6.5,-46.4" fill="none" stroke="#4a0618" stroke-opacity="0.14" stroke-width="0.7"/>
<path d="M0,-2.0 Q7.5,-24.7 12.9,-46.4" fill="none" stroke="#4a0618" stroke-opacity="0.18" stroke-width="0.7"/>
<path d="M0,0 C-13.4,-4.9 -29.5,-22.3 -22.8,-38.9 C-18.8,-47.4 -9.4,-51.4 -3.2,-49.4 Q0,-45.5 3.1,-49.1 C9.1,-51.0 18.2,-47.1 22.1,-38.7 C28.6,-22.3 13.0,-4.9 0,0 Z" fill="url(#sheen)"/>
<path d="M0,0 C-13.4,-4.9 -29.5,-22.3 -22.8,-38.9 C-18.8,-47.4 -9.4,-51.4 -3.2,-49.4 Q0,-45.5 3.1,-49.1 C9.1,-51.0 18.2,-47.1 22.1,-38.7 C28.6,-22.3 13.0,-4.9 0,0 Z" fill="none" stroke="#ff8fae" stroke-opacity="0.55" stroke-width="0.8" stroke-linejoin="round"/>
</g>
<g transform="rotate(227.9) scale(1.027 0.948) skewX(0.5)">
<path d="M0,0 C-15.1,-4.9 -33.2,-22.0 -25.6,-38.4 C-21.1,-46.7 -10.6,-50.7 -3.6,-48.7 Q0,-44.7 3.6,-48.5 C10.4,-50.4 20.8,-46.5 25.2,-38.2 C32.7,-22.0 14.8,-4.9 0,0 Z" fill="url(#gC)"/>
<path d="M0,0 C-15.1,-4.9 -33.2,-22.0 -25.6,-38.4 C-21.1,-46.7 -10.6,-50.7 -3.6,-48.7 Q0,-44.7 3.6,-48.5 C10.4,-50.4 20.8,-46.5 25.2,-38.2 C32.7,-22.0 14.8,-4.9 0,0 Z" fill="#2a0010" fill-opacity="0.014"/>
<path d="M0,-2.0 Q-8.4,-24.5 -16.4,-45.7" fill="none" stroke="#4a0618" stroke-opacity="0.23" stroke-width="0.7"/>
<path d="M0,-2.0 Q-4.2,-24.5 -6.6,-45.7" fill="none" stroke="#4a0618" stroke-opacity="0.18" stroke-width="0.7"/>
<path d="M0,-2.0 Q0.0,-24.5 0.0,-45.7" fill="none" stroke="#4a0618" stroke-opacity="0.17" stroke-width="0.7"/>
<path d="M0,-2.0 Q4.2,-24.5 7.9,-45.7" fill="none" stroke="#4a0618" stroke-opacity="0.23" stroke-width="0.7"/>
<path d="M0,-2.0 Q8.4,-24.5 14.2,-45.7" fill="none" stroke="#4a0618" stroke-opacity="0.16" stroke-width="0.7"/>
<path d="M0,0 C-15.1,-4.9 -33.2,-22.0 -25.6,-38.4 C-21.1,-46.7 -10.6,-50.7 -3.6,-48.7 Q0,-44.7 3.6,-48.5 C10.4,-50.4 20.8,-46.5 25.2,-38.2 C32.7,-22.0 14.8,-4.9 0,0 Z" fill="url(#sheen)"/>
<path d="M0,0 C-15.1,-4.9 -33.2,-22.0 -25.6,-38.4 C-21.1,-46.7 -10.6,-50.7 -3.6,-48.7 Q0,-44.7 3.6,-48.5 C10.4,-50.4 20.8,-46.5 25.2,-38.2 C32.7,-22.0 14.8,-4.9 0,0 Z" fill="none" stroke="#ff8fae" stroke-opacity="0.55" stroke-width="0.8" stroke-linejoin="round"/>
</g>
<g transform="rotate(292.4) scale(1.026 0.979) skewX(-2.0)">
<path d="M0,0 C-14.2,-5.4 -31.2,-24.3 -24.1,-41.3 C-19.8,-50.4 -9.9,-54.6 -3.4,-52.5 Q0,-49.7 3.7,-52.6 C10.9,-54.7 21.8,-50.5 26.4,-41.4 C34.2,-24.3 15.5,-5.4 0,0 Z" fill="url(#gC)"/>
<path d="M0,0 C-14.2,-5.4 -31.2,-24.3 -24.1,-41.3 C-19.8,-50.4 -9.9,-54.6 -3.4,-52.5 Q0,-49.7 3.7,-52.6 C10.9,-54.7 21.8,-50.5 26.4,-41.4 C34.2,-24.3 15.5,-5.4 0,0 Z" fill="#fff" fill-opacity="0.036"/>
<path d="M0,-2.2 Q-8.4,-27.0 -12.4,-49.3" fill="none" stroke="#4a0618" stroke-opacity="0.21" stroke-width="0.7"/>
<path d="M0,-2.2 Q-4.2,-27.0 -6.3,-49.3" fill="none" stroke="#4a0618" stroke-opacity="0.18" stroke-width="0.7"/>
<path d="M0,-2.2 Q0.0,-27.0 0.0,-49.3" fill="none" stroke="#4a0618" stroke-opacity="0.14" stroke-width="0.7"/>
<path d="M0,-2.2 Q4.2,-27.0 7.2,-49.3" fill="none" stroke="#4a0618" stroke-opacity="0.17" stroke-width="0.7"/>
<path d="M0,-2.2 Q8.4,-27.0 13.6,-49.3" fill="none" stroke="#4a0618" stroke-opacity="0.17" stroke-width="0.7"/>
<path d="M0,0 C-14.2,-5.4 -31.2,-24.3 -24.1,-41.3 C-19.8,-50.4 -9.9,-54.6 -3.4,-52.5 Q0,-49.7 3.7,-52.6 C10.9,-54.7 21.8,-50.5 26.4,-41.4 C34.2,-24.3 15.5,-5.4 0,0 Z" fill="url(#sheen)"/>
<path d="M0,0 C-14.2,-5.4 -31.2,-24.3 -24.1,-41.3 C-19.8,-50.4 -9.9,-54.6 -3.4,-52.5 Q0,-49.7 3.7,-52.6 C10.9,-54.7 21.8,-50.5 26.4,-41.4 C34.2,-24.3 15.5,-5.4 0,0 Z" fill="none" stroke="#ff8fae" stroke-opacity="0.55" stroke-width="0.8" stroke-linejoin="round"/>
</g>
</g>
<circle cx="0" cy="0" r="32" fill="url(#ao60)"/>
<g filter="url(#sh4)">
<g transform="rotate(38.6) scale(1.050 0.968) skewX(3.4)">
<path d="M0,0 C-9.7,-3.4 -21.3,-15.3 -16.5,-27.1 C-13.6,-33.0 -6.8,-35.8 -2.3,-34.4 Q0,-32.0 2.3,-33.9 C6.8,-35.3 13.6,-32.6 16.5,-26.7 C21.4,-15.3 9.7,-3.4 0,0 Z" fill="url(#gD)"/>
<path d="M0,0 C-9.7,-3.4 -21.3,-15.3 -16.5,-27.1 C-13.6,-33.0 -6.8,-35.8 -2.3,-34.4 Q0,-32.0 2.3,-33.9 C6.8,-35.3 13.6,-32.6 16.5,-26.7 C21.4,-15.3 9.7,-3.4 0,0 Z" fill="#fff" fill-opacity="0.078"/>
<path d="M0,-1.4 Q-5.3,-17.0 -10.2,-32.3" fill="none" stroke="#4a0618" stroke-opacity="0.16" stroke-width="0.7"/>
<path d="M0,-1.4 Q-2.7,-17.0 -4.3,-32.3" fill="none" stroke="#4a0618" stroke-opacity="0.23" stroke-width="0.7"/>
<path d="M0,-1.4 Q0.0,-17.0 0.0,-32.3" fill="none" stroke="#4a0618" stroke-opacity="0.24" stroke-width="0.7"/>
<path d="M0,-1.4 Q2.7,-17.0 5.1,-32.3" fill="none" stroke="#4a0618" stroke-opacity="0.14" stroke-width="0.7"/>
<path d="M0,-1.4 Q5.3,-17.0 8.3,-32.3" fill="none" stroke="#4a0618" stroke-opacity="0.21" stroke-width="0.7"/>
<path d="M0,0 C-9.7,-3.4 -21.3,-15.3 -16.5,-27.1 C-13.6,-33.0 -6.8,-35.8 -2.3,-34.4 Q0,-32.0 2.3,-33.9 C6.8,-35.3 13.6,-32.6 16.5,-26.7 C21.4,-15.3 9.7,-3.4 0,0 Z" fill="url(#sheen)"/>
<path d="M0,0 C-9.7,-3.4 -21.3,-15.3 -16.5,-27.1 C-13.6,-33.0 -6.8,-35.8 -2.3,-34.4 Q0,-32.0 2.3,-33.9 C6.8,-35.3 13.6,-32.6 16.5,-26.7 C21.4,-15.3 9.7,-3.4 0,0 Z" fill="none" stroke="#ff86a8" stroke-opacity="0.55" stroke-width="0.8" stroke-linejoin="round"/>
</g>
<g transform="rotate(105.2) scale(0.932 0.964) skewX(2.6)">
<path d="M0,0 C-10.4,-3.4 -22.9,-15.2 -17.7,-26.1 C-14.6,-31.8 -7.3,-34.5 -2.5,-33.1 Q0,-31.3 2.6,-33.7 C7.7,-35.1 15.3,-32.4 18.6,-26.6 C24.1,-15.2 11.0,-3.4 0,0 Z" fill="url(#gD)"/>
<path d="M0,0 C-10.4,-3.4 -22.9,-15.2 -17.7,-26.1 C-14.6,-31.8 -7.3,-34.5 -2.5,-33.1 Q0,-31.3 2.6,-33.7 C7.7,-35.1 15.3,-32.4 18.6,-26.6 C24.1,-15.2 11.0,-3.4 0,0 Z" fill="#fff" fill-opacity="0.101"/>
<path d="M0,-1.3 Q-5.9,-16.8 -11.5,-31.1" fill="none" stroke="#4a0618" stroke-opacity="0.13" stroke-width="0.7"/>
<path d="M0,-1.3 Q-2.9,-16.8 -5.0,-31.1" fill="none" stroke="#4a0618" stroke-opacity="0.21" stroke-width="0.7"/>
<path d="M0,-1.3 Q0.0,-16.8 0.0,-31.1" fill="none" stroke="#4a0618" stroke-opacity="0.20" stroke-width="0.7"/>
<path d="M0,-1.3 Q2.9,-16.8 4.5,-31.1" fill="none" stroke="#4a0618" stroke-opacity="0.13" stroke-width="0.7"/>
<path d="M0,-1.3 Q5.9,-16.8 8.8,-31.1" fill="none" stroke="#4a0618" stroke-opacity="0.12" stroke-width="0.7"/>
<path d="M0,0 C-10.4,-3.4 -22.9,-15.2 -17.7,-26.1 C-14.6,-31.8 -7.3,-34.5 -2.5,-33.1 Q0,-31.3 2.6,-33.7 C7.7,-35.1 15.3,-32.4 18.6,-26.6 C24.1,-15.2 11.0,-3.4 0,0 Z" fill="url(#sheen)"/>
<path d="M0,0 C-10.4,-3.4 -22.9,-15.2 -17.7,-26.1 C-14.6,-31.8 -7.3,-34.5 -2.5,-33.1 Q0,-31.3 2.6,-33.7 C7.7,-35.1 15.3,-32.4 18.6,-26.6 C24.1,-15.2 11.0,-3.4 0,0 Z" fill="none" stroke="#ff86a8" stroke-opacity="0.55" stroke-width="0.8" stroke-linejoin="round"/>
</g>
<g transform="rotate(183.0) scale(1.060 0.951) skewX(-6.1)">
<path d="M0,0 C-9.6,-3.6 -21.1,-16.2 -16.3,-28.7 C-13.5,-35.0 -6.7,-37.9 -2.3,-36.5 Q0,-34.3 2.3,-36.8 C6.8,-38.3 13.5,-35.3 16.4,-29.0 C21.3,-16.2 9.7,-3.6 0,0 Z" fill="url(#gD)"/>
<path d="M0,0 C-9.6,-3.6 -21.1,-16.2 -16.3,-28.7 C-13.5,-35.0 -6.7,-37.9 -2.3,-36.5 Q0,-34.3 2.3,-36.8 C6.8,-38.3 13.5,-35.3 16.4,-29.0 C21.3,-16.2 9.7,-3.6 0,0 Z" fill="#fff" fill-opacity="0.109"/>
<path d="M0,-1.4 Q-5.7,-18.0 -9.5,-34.2" fill="none" stroke="#4a0618" stroke-opacity="0.21" stroke-width="0.7"/>
<path d="M0,-1.4 Q-2.8,-18.0 -4.5,-34.2" fill="none" stroke="#4a0618" stroke-opacity="0.18" stroke-width="0.7"/>
<path d="M0,-1.4 Q0.0,-18.0 0.0,-34.2" fill="none" stroke="#4a0618" stroke-opacity="0.17" stroke-width="0.7"/>
<path d="M0,-1.4 Q2.8,-18.0 5.0,-34.2" fill="none" stroke="#4a0618" stroke-opacity="0.12" stroke-width="0.7"/>
<path d="M0,-1.4 Q5.7,-18.0 10.2,-34.2" fill="none" stroke="#4a0618" stroke-opacity="0.22" stroke-width="0.7"/>
<path d="M0,0 C-9.6,-3.6 -21.1,-16.2 -16.3,-28.7 C-13.5,-35.0 -6.7,-37.9 -2.3,-36.5 Q0,-34.3 2.3,-36.8 C6.8,-38.3 13.5,-35.3 16.4,-29.0 C21.3,-16.2 9.7,-3.6 0,0 Z" fill="url(#sheen)"/>
<path d="M0,0 C-9.6,-3.6 -21.1,-16.2 -16.3,-28.7 C-13.5,-35.0 -6.7,-37.9 -2.3,-36.5 Q0,-34.3 2.3,-36.8 C6.8,-38.3 13.5,-35.3 16.4,-29.0 C21.3,-16.2 9.7,-3.6 0,0 Z" fill="none" stroke="#ff86a8" stroke-opacity="0.55" stroke-width="0.8" stroke-linejoin="round"/>
</g>
<g transform="rotate(247.6) scale(1.055 1.036) skewX(2.9)">
<path d="M0,0 C-10.2,-3.6 -22.5,-16.1 -17.4,-27.9 C-14.3,-34.0 -7.2,-36.8 -2.5,-35.4 Q0,-33.4 2.4,-34.3 C7.0,-35.7 13.9,-33.0 16.9,-27.1 C21.9,-16.1 9.9,-3.6 0,0 Z" fill="url(#gD)"/>
<path d="M0,0 C-10.2,-3.6 -22.5,-16.1 -17.4,-27.9 C-14.3,-34.0 -7.2,-36.8 -2.5,-35.4 Q0,-33.4 2.4,-34.3 C7.0,-35.7 13.9,-33.0 16.9,-27.1 C21.9,-16.1 9.9,-3.6 0,0 Z" fill="#fff" fill-opacity="0.089"/>
<path d="M0,-1.4 Q-5.8,-17.9 -10.3,-33.3" fill="none" stroke="#4a0618" stroke-opacity="0.17" stroke-width="0.7"/>
<path d="M0,-1.4 Q-2.9,-17.9 -5.1,-33.3" fill="none" stroke="#4a0618" stroke-opacity="0.18" stroke-width="0.7"/>
<path d="M0,-1.4 Q0.0,-17.9 0.0,-33.3" fill="none" stroke="#4a0618" stroke-opacity="0.22" stroke-width="0.7"/>
<path d="M0,-1.4 Q2.9,-17.9 4.6,-33.3" fill="none" stroke="#4a0618" stroke-opacity="0.23" stroke-width="0.7"/>
<path d="M0,-1.4 Q5.8,-17.9 10.6,-33.3" fill="none" stroke="#4a0618" stroke-opacity="0.21" stroke-width="0.7"/>
<path d="M0,0 C-10.2,-3.6 -22.5,-16.1 -17.4,-27.9 C-14.3,-34.0 -7.2,-36.8 -2.5,-35.4 Q0,-33.4 2.4,-34.3 C7.0,-35.7 13.9,-33.0 16.9,-27.1 C21.9,-16.1 9.9,-3.6 0,0 Z" fill="url(#sheen)"/>
<path d="M0,0 C-10.2,-3.6 -22.5,-16.1 -17.4,-27.9 C-14.3,-34.0 -7.2,-36.8 -2.5,-35.4 Q0,-33.4 2.4,-34.3 C7.0,-35.7 13.9,-33.0 16.9,-27.1 C21.9,-16.1 9.9,-3.6 0,0 Z" fill="none" stroke="#ff86a8" stroke-opacity="0.55" stroke-width="0.8" stroke-linejoin="round"/>
</g>
<g transform="rotate(332.3) scale(1.031 0.948) skewX(-2.2)">
<path d="M0,0 C-11.2,-3.5 -24.6,-16.0 -19.0,-28.1 C-15.7,-34.2 -7.8,-37.1 -2.7,-35.7 Q0,-32.8 2.6,-34.9 C7.6,-36.3 15.3,-33.5 18.6,-27.5 C24.0,-16.0 10.9,-3.5 0,0 Z" fill="url(#gD)"/>
<path d="M0,0 C-11.2,-3.5 -24.6,-16.0 -19.0,-28.1 C-15.7,-34.2 -7.8,-37.1 -2.7,-35.7 Q0,-32.8 2.6,-34.9 C7.6,-36.3 15.3,-33.5 18.6,-27.5 C24.0,-16.0 10.9,-3.5 0,0 Z" fill="#fff" fill-opacity="0.003"/>
<path d="M0,-1.4 Q-6.0,-17.7 -8.5,-33.5" fill="none" stroke="#4a0618" stroke-opacity="0.16" stroke-width="0.7"/>
<path d="M0,-1.4 Q-3.0,-17.7 -5.3,-33.5" fill="none" stroke="#4a0618" stroke-opacity="0.19" stroke-width="0.7"/>
<path d="M0,-1.4 Q0.0,-17.7 0.0,-33.5" fill="none" stroke="#4a0618" stroke-opacity="0.23" stroke-width="0.7"/>
<path d="M0,-1.4 Q3.0,-17.7 5.3,-33.5" fill="none" stroke="#4a0618" stroke-opacity="0.16" stroke-width="0.7"/>
<path d="M0,-1.4 Q6.0,-17.7 10.6,-33.5" fill="none" stroke="#4a0618" stroke-opacity="0.19" stroke-width="0.7"/>
<path d="M0,0 C-11.2,-3.5 -24.6,-16.0 -19.0,-28.1 C-15.7,-34.2 -7.8,-37.1 -2.7,-35.7 Q0,-32.8 2.6,-34.9 C7.6,-36.3 15.3,-33.5 18.6,-27.5 C24.0,-16.0 10.9,-3.5 0,0 Z" fill="url(#sheen)"/>
<path d="M0,0 C-11.2,-3.5 -24.6,-16.0 -19.0,-28.1 C-15.7,-34.2 -7.8,-37.1 -2.7,-35.7 Q0,-32.8 2.6,-34.9 C7.6,-36.3 15.3,-33.5 18.6,-27.5 C24.0,-16.0 10.9,-3.5 0,0 Z" fill="none" stroke="#ff86a8" stroke-opacity="0.55" stroke-width="0.8" stroke-linejoin="round"/>
</g>
</g>
<g filter="url(#tinyShadow)">
<circle cx="0" cy="0" r="9" fill="url(#boss)"/>
<path d="M1.5,-1.5 Q4.4,-5.4 9.1,-8.7" fill="none" stroke="#e0a91c" stroke-width="1" stroke-linecap="round"/><ellipse cx="9.1" cy="-8.7" rx="2.7" ry="1.4" transform="rotate(316 9.1 -8.7)" fill="url(#anther)" stroke="#9a6a05" stroke-width="0.5"/>
<path d="M4.8,-0.3 Q10.3,-0.9 12.6,-0.9" fill="none" stroke="#e0a91c" stroke-width="1" stroke-linecap="round"/><ellipse cx="12.6" cy="-0.9" rx="2.6" ry="1.8" transform="rotate(356 12.6 -0.9)" fill="url(#anther)" stroke="#9a6a05" stroke-width="0.5"/>
<path d="M-2.1,-0.6 Q-6.5,-1.7 -12.3,-3.3" fill="none" stroke="#e0a91c" stroke-width="1" stroke-linecap="round"/><ellipse cx="-12.3" cy="-3.3" rx="2.7" ry="1.5" transform="rotate(195 -12.3 -3.3)" fill="url(#anther)" stroke="#9a6a05" stroke-width="0.5"/>
<path d="M-2.8,1.4 Q-5.7,1.8 -11.6,5.7" fill="none" stroke="#e0a91c" stroke-width="1" stroke-linecap="round"/><ellipse cx="-11.6" cy="5.7" rx="2.3" ry="1.6" transform="rotate(154 -11.6 5.7)" fill="url(#anther)" stroke="#9a6a05" stroke-width="0.5"/>
<path d="M-0.5,-3.1 Q-0.4,-7.7 -2.0,-12.9" fill="none" stroke="#e0a91c" stroke-width="1" stroke-linecap="round"/><ellipse cx="-2.0" cy="-12.9" rx="2.9" ry="1.8" transform="rotate(261 -2.0 -12.9)" fill="url(#anther)" stroke="#9a6a05" stroke-width="0.5"/>
<path d="M4.6,1.3 Q8.6,1.2 12.9,3.8" fill="none" stroke="#e0a91c" stroke-width="1" stroke-linecap="round"/><ellipse cx="12.9" cy="3.8" rx="2.6" ry="1.6" transform="rotate(16 12.9 3.8)" fill="url(#anther)" stroke="#9a6a05" stroke-width="0.5"/>
<path d="M-1.6,1.6 Q-4.3,6.0 -10.1,10.0" fill="none" stroke="#e0a91c" stroke-width="1" stroke-linecap="round"/><ellipse cx="-10.1" cy="10.0" rx="2.6" ry="1.8" transform="rotate(135 -10.1 10.0)" fill="url(#anther)" stroke="#9a6a05" stroke-width="0.5"/>
<path d="M0.3,-4.6 Q-1.4,-9.5 0.8,-14.5" fill="none" stroke="#e0a91c" stroke-width="1" stroke-linecap="round"/><ellipse cx="0.8" cy="-14.5" rx="2.6" ry="1.6" transform="rotate(273 0.8 -14.5)" fill="url(#anther)" stroke="#9a6a05" stroke-width="0.5"/>
<path d="M-2.1,-3.0 Q-4.3,-8.4 -8.2,-12.0" fill="none" stroke="#e0a91c" stroke-width="1" stroke-linecap="round"/><ellipse cx="-8.2" cy="-12.0" rx="2.2" ry="1.4" transform="rotate(236 -8.2 -12.0)" fill="url(#anther)" stroke="#9a6a05" stroke-width="0.5"/>
<path d="M-4.0,0.4 Q-8.2,-0.8 -14.6,1.4" fill="none" stroke="#e0a91c" stroke-width="1" stroke-linecap="round"/><ellipse cx="-14.6" cy="1.4" rx="2.4" ry="1.6" transform="rotate(175 -14.6 1.4)" fill="url(#anther)" stroke="#9a6a05" stroke-width="0.5"/>
<path d="M-2.6,0.4 Q-7.8,2.5 -15.0,2.0" fill="none" stroke="#e0a91c" stroke-width="1" stroke-linecap="round"/><ellipse cx="-15.0" cy="2.0" rx="2.3" ry="1.4" transform="rotate(172 -15.0 2.0)" fill="url(#anther)" stroke="#9a6a05" stroke-width="0.5"/>
<path d="M2.2,-1.7 Q6.6,-6.1 12.0,-9.4" fill="none" stroke="#e0a91c" stroke-width="1" stroke-linecap="round"/><ellipse cx="12.0" cy="-9.4" rx="2.5" ry="1.5" transform="rotate(322 12.0 -9.4)" fill="url(#anther)" stroke="#9a6a05" stroke-width="0.5"/>
<path d="M4.5,1.7 Q9.7,4.1 14.7,5.7" fill="none" stroke="#e0a91c" stroke-width="1" stroke-linecap="round"/><ellipse cx="14.7" cy="5.7" rx="2.5" ry="1.4" transform="rotate(21 14.7 5.7)" fill="url(#anther)" stroke="#9a6a05" stroke-width="0.5"/>
<path d="M-1.9,-1.4 Q-8.1,-7.2 -14.0,-10.7" fill="none" stroke="#e0a91c" stroke-width="1" stroke-linecap="round"/><ellipse cx="-14.0" cy="-10.7" rx="2.2" ry="1.6" transform="rotate(217 -14.0 -10.7)" fill="url(#anther)" stroke="#9a6a05" stroke-width="0.5"/>
<path d="M3.4,-2.7 Q8.0,-7.8 13.8,-11.0" fill="none" stroke="#e0a91c" stroke-width="1" stroke-linecap="round"/><ellipse cx="13.8" cy="-11.0" rx="2.7" ry="1.6" transform="rotate(321 13.8 -11.0)" fill="url(#anther)" stroke="#9a6a05" stroke-width="0.5"/>
<path d="M-4.5,-2.1 Q-9.1,-6.4 -16.1,-7.3" fill="none" stroke="#e0a91c" stroke-width="1" stroke-linecap="round"/><ellipse cx="-16.1" cy="-7.3" rx="2.7" ry="1.7" transform="rotate(204 -16.1 -7.3)" fill="url(#anther)" stroke="#9a6a05" stroke-width="0.5"/>
<path d="M2.4,2.3 Q7.4,6.6 12.8,12.7" fill="none" stroke="#e0a91c" stroke-width="1" stroke-linecap="round"/><ellipse cx="12.8" cy="12.7" rx="2.7" ry="1.5" transform="rotate(45 12.8 12.7)" fill="url(#anther)" stroke="#9a6a05" stroke-width="0.5"/>
<path d="M2.5,1.4 Q10.1,4.4 16.1,9.1" fill="none" stroke="#e0a91c" stroke-width="1" stroke-linecap="round"/><ellipse cx="16.1" cy="9.1" rx="2.3" ry="1.5" transform="rotate(29 16.1 9.1)" fill="url(#anther)" stroke="#9a6a05" stroke-width="0.5"/>
<path d="M3.8,0.5 Q10.2,1.2 18.5,2.7" fill="none" stroke="#e0a91c" stroke-width="1" stroke-linecap="round"/><ellipse cx="18.5" cy="2.7" rx="2.2" ry="1.4" transform="rotate(8 18.5 2.7)" fill="url(#anther)" stroke="#9a6a05" stroke-width="0.5"/>
<path d="M-3.3,-2.1 Q-10.8,-7.2 -15.7,-10.2" fill="none" stroke="#e0a91c" stroke-width="1" stroke-linecap="round"/><ellipse cx="-15.7" cy="-10.2" rx="3.0" ry="1.8" transform="rotate(213 -15.7 -10.2)" fill="url(#anther)" stroke="#9a6a05" stroke-width="0.5"/>
<path d="M2.4,0.7 Q9.8,4.4 18.1,5.0" fill="none" stroke="#e0a91c" stroke-width="1" stroke-linecap="round"/><ellipse cx="18.1" cy="5.0" rx="2.8" ry="1.3" transform="rotate(15 18.1 5.0)" fill="url(#anther)" stroke="#9a6a05" stroke-width="0.5"/>
<path d="M1.4,-3.6 Q3.0,-10.9 6.9,-17.6" fill="none" stroke="#e0a91c" stroke-width="1" stroke-linecap="round"/><ellipse cx="6.9" cy="-17.6" rx="2.4" ry="1.7" transform="rotate(291 6.9 -17.6)" fill="url(#anther)" stroke="#9a6a05" stroke-width="0.5"/>
<path d="M1.3,3.5 Q4.0,12.1 6.5,18.0" fill="none" stroke="#e0a91c" stroke-width="1" stroke-linecap="round"/><ellipse cx="6.5" cy="18.0" rx="2.7" ry="1.4" transform="rotate(70 6.5 18.0)" fill="url(#anther)" stroke="#9a6a05" stroke-width="0.5"/>
<path d="M2.8,-1.7 Q8.9,-6.6 16.4,-10.0" fill="none" stroke="#e0a91c" stroke-width="1" stroke-linecap="round"/><ellipse cx="16.4" cy="-10.0" rx="2.5" ry="1.8" transform="rotate(329 16.4 -10.0)" fill="url(#anther)" stroke="#9a6a05" stroke-width="0.5"/>
<path d="M3.9,-0.8 Q9.6,-2.2 18.8,-4.0" fill="none" stroke="#e0a91c" stroke-width="1" stroke-linecap="round"/><ellipse cx="18.8" cy="-4.0" rx="2.8" ry="1.3" transform="rotate(348 18.8 -4.0)" fill="url(#anther)" stroke="#9a6a05" stroke-width="0.5"/>
<path d="M3.7,2.1 Q8.9,6.5 17.5,9.9" fill="none" stroke="#e0a91c" stroke-width="1" stroke-linecap="round"/><ellipse cx="17.5" cy="9.9" rx="2.3" ry="1.7" transform="rotate(29 17.5 9.9)" fill="url(#anther)" stroke="#9a6a05" stroke-width="0.5"/>
<path d="M0.1,3.6 Q1.4,11.9 0.8,20.4" fill="none" stroke="#e0a91c" stroke-width="1" stroke-linecap="round"/><ellipse cx="0.8" cy="20.4" rx="3.0" ry="1.7" transform="rotate(88 0.8 20.4)" fill="url(#anther)" stroke="#9a6a05" stroke-width="0.5"/>
<path d="M-2.7,2.9 Q-9.1,9.3 -14.2,15.3" fill="none" stroke="#e0a91c" stroke-width="1" stroke-linecap="round"/><ellipse cx="-14.2" cy="15.3" rx="2.8" ry="1.8" transform="rotate(133 -14.2 15.3)" fill="url(#anther)" stroke="#9a6a05" stroke-width="0.5"/>
<path d="M0.6,-3.5 Q4.0,-11.2 3.7,-20.7" fill="none" stroke="#e0a91c" stroke-width="1" stroke-linecap="round"/><ellipse cx="3.7" cy="-20.7" rx="2.4" ry="1.4" transform="rotate(280 3.7 -20.7)" fill="url(#anther)" stroke="#9a6a05" stroke-width="0.5"/>
<path d="M-3.1,-0.7 Q-11.3,-1.7 -20.5,-4.3" fill="none" stroke="#e0a91c" stroke-width="1" stroke-linecap="round"/><ellipse cx="-20.5" cy="-4.3" rx="2.8" ry="1.8" transform="rotate(192 -20.5 -4.3)" fill="url(#anther)" stroke="#9a6a05" stroke-width="0.5"/>
</g>
</g></svg>